<svg xmlns="http://www.w3.org/2000/svg" width="350" height="97" fill="none"><path fill="#000" d="M145.968 7.44c.112 0 .2.024.264.072a.39.39 0 0 1 .168.24L152.184 24h-1.032l-5.04-14.4-.24-.672-.24-.672h-.672l-.24.672-.24.672-5.04 14.4h-1.032l5.784-16.248a.39.39 0 0 1 .168-.24.504.504 0 0 1 .264-.072h1.344Zm3.504 9.864v.864h-8.4v-.864h8.4Zm9.562-4.992c1.184 0 2.12.088 2.808.264.704.176 1.208.488 1.512.936.304.432.456 1.064.456 1.896 0 .816-.2 1.44-.6 1.872-.384.416-1.016.664-1.896.744v.048c1.088.08 1.84.384 2.256.912.432.512.648 1.232.648 2.16 0 .784-.152 1.392-.456 1.824-.288.432-.76.736-1.416.912-.656.176-1.544.264-2.664.264-.752 0-1.4-.008-1.944-.024-.544 0-1.048-.016-1.512-.048-.448-.016-.936-.04-1.464-.072l.288-.696c.304.016.864.032 1.68.048h2.856c.896 0 1.608-.064 2.136-.192.544-.128.936-.36 1.176-.696.24-.336.36-.824.36-1.464 0-.992-.288-1.672-.864-2.04-.56-.368-1.552-.552-2.976-.552h-4.392v-.72h4.392c.848-.016 1.52-.08 2.016-.192.512-.128.88-.352 1.104-.672.224-.32.336-.776.336-1.368 0-.64-.128-1.12-.384-1.44-.24-.336-.648-.568-1.224-.696-.56-.128-1.312-.192-2.256-.192-.624-.016-1.2-.016-1.728 0-.512 0-.96.008-1.344.024-.384 0-.68.008-.888.024l-.288-.72c.464-.048.888-.08 1.272-.096.4-.016.84-.024 1.32-.024.48-.016 1.04-.024 1.68-.024Zm-3.36.144V24h-.912V12.456h.912Zm14.515-.024c.944 0 1.872.008 2.784.024.928 0 1.856.024 2.784.072l-.024.72h-5.232c-.56 0-.976.136-1.248.408-.272.272-.408.704-.408 1.296V24h-.96v-9.24c0-.736.2-1.304.6-1.704.416-.416.984-.624 1.704-.624Zm17.913 0-5.136 12.576c-.128.336-.296.704-.504 1.104-.192.4-.416.784-.672 1.152a4.623 4.623 0 0 1-.888.96c-.496.336-1.04.56-1.632.672a5.215 5.215 0 0 1-1.8.024l.072-.624a6.54 6.54 0 0 0 1.464-.12c.496-.08.952-.272 1.368-.576.368-.336.696-.752.984-1.248.288-.496.536-1.008.744-1.536l.48-1.2c.112-.272.224-.56.336-.864.128-.32.248-.608.36-.864l3.792-9.456h1.032Zm-9.984 0 3.816 9.48c.08.224.16.44.24.648.096.208.184.424.264.648h.48l-.36.792h-.432a.504.504 0 0 1-.264-.072.597.597 0 0 1-.168-.216l-4.608-11.28h1.032Zm17.419-.288c.304 0 .648.016 1.032.048.4.016.8.056 1.2.12.416.064.792.16 1.128.288l-.168.648c-.448-.096-.968-.16-1.56-.192a28.378 28.378 0 0 0-1.488-.048c-1.088 0-1.96.16-2.616.48-.656.304-1.136.832-1.44 1.584-.288.752-.432 1.8-.432 3.144s.144 2.4.432 3.168c.304.752.784 1.28 1.44 1.584.656.304 1.528.456 2.616.456.24 0 .552-.008.936-.024s.792-.04 1.224-.072c.432-.048.832-.104 1.2-.168l.12.672c-.544.128-1.136.232-1.776.312a12.14 12.14 0 0 1-1.848.144c-1.296 0-2.336-.192-3.12-.576-.784-.4-1.352-1.048-1.704-1.944-.336-.896-.504-2.08-.504-3.552 0-1.488.168-2.672.504-3.552.352-.896.92-1.536 1.704-1.92.784-.4 1.824-.6 3.12-.6Zm10.858.288V24h-.984V12.432h.984Zm4.512 0v.84h-10.008v-.84h10.008ZM2.296 42.544V53.86h-.672V42.544h.672Zm6.462 0v.574H2.165v-.574h6.593Zm.492 0V53.86h-.672V42.544h.672Zm3.921 0V53.86H12.5V42.544h.672Zm6.413 4.953v.59H13.04v-.59h6.544Zm.492-4.953V53.86h-.672V42.544h.672ZM61.847 42.413c.896 0 1.613.087 2.148.262.536.164.924.46 1.165.886.24.426.36 1.027.36 1.804 0 .809-.152 1.426-.459 1.853-.295.426-.781.672-1.46.738v.066c.843.076 1.428.371 1.756.885.328.514.492 1.225.492 2.132 0 .777-.115 1.378-.345 1.804-.23.427-.601.728-1.115.902-.514.165-1.197.247-2.05.247-.59 0-1.099-.006-1.525-.017-.416 0-.799-.01-1.148-.033-.35-.022-.728-.049-1.132-.082l.23-.508c.23.01.661.022 1.295.033.634.01 1.372.016 2.214.016.722 0 1.29-.066 1.706-.197.415-.13.716-.371.902-.721.186-.35.279-.853.279-1.51 0-.71-.099-1.257-.295-1.64-.197-.393-.52-.666-.968-.82-.437-.152-1.028-.234-1.771-.245h-3.379v-.542h3.379c.667-.01 1.197-.076 1.59-.196.405-.132.69-.361.853-.69.175-.338.263-.814.263-1.426 0-.656-.099-1.154-.295-1.493-.186-.35-.503-.59-.952-.721-.437-.132-1.022-.197-1.755-.197-.502 0-.956.005-1.36.016-.405 0-.755.006-1.05.017a9.9 9.9 0 0 0-.657.016l-.23-.508c.35-.044.679-.071.985-.082.306-.022.64-.033 1-.033a45.83 45.83 0 0 1 1.329-.017Zm-2.64.13V53.86h-.673V42.544h.672Zm12.443 0V53.86h-.672V42.544h.672Zm3.904 0v.591H67.09v-.59h8.463ZM117.249 42.347c.459 0 .847.01 1.164.033.329.021.629.054.903.098.273.044.557.099.852.164l-.114.492a14.223 14.223 0 0 0-.87-.098 9.64 9.64 0 0 0-.853-.066c-.306-.01-.666-.016-1.082-.016-.875 0-1.569.17-2.083.508-.514.328-.886.875-1.115 1.64-.23.766-.345 1.799-.345 3.1 0 1.301.115 2.334.345 3.1.229.765.601 1.317 1.115 1.656.514.328 1.208.492 2.083.492.667 0 1.23-.016 1.689-.049.46-.033.908-.087 1.345-.164l.115.508c-.448.11-.908.186-1.378.23a15.8 15.8 0 0 1-1.771.082c-1.039 0-1.87-.186-2.493-.558-.623-.382-1.071-1-1.345-1.853-.273-.853-.41-2-.41-3.444 0-1.443.137-2.591.41-3.444.274-.853.722-1.465 1.345-1.837.623-.383 1.454-.574 2.493-.574Zm9.127.066c.831 0 1.487.098 1.968.295.492.197.847.54 1.066 1.033.219.492.328 1.175.328 2.05 0 .886-.109 1.575-.328 2.067a1.843 1.843 0 0 1-1.05 1.033c-.481.186-1.131.279-1.951.279h-1.247a26.576 26.576 0 0 1-1.05-.05 43.43 43.43 0 0 0-.803-.049 2.74 2.74 0 0 1-.459-.049l.049-.443H126.376c.656-.01 1.175-.093 1.558-.246.393-.153.678-.432.853-.836.175-.405.262-.973.262-1.706 0-.743-.087-1.312-.262-1.706a1.494 1.494 0 0 0-.853-.836c-.383-.164-.902-.246-1.558-.246-.853 0-1.591.005-2.214.016-.613.011-1.028.028-1.247.05l-.229-.525c.393-.044.759-.071 1.098-.082.35-.022.728-.033 1.132-.033.405-.011.891-.017 1.46-.017Zm-3.018.13V53.86h-.672V42.544h.672ZM167.52 42.544v4.46c0 .657.148 1.143.443 1.46.295.307.765.46 1.41.46.514 0 .984-.044 1.411-.132.437-.087.88-.23 1.328-.426.46-.197.968-.46 1.526-.787l.016.541c-.525.339-1.044.618-1.558.837a7.29 7.29 0 0 1-1.476.442 8.047 8.047 0 0 1-1.443.132c-.788 0-1.373-.197-1.755-.59-.383-.406-.574-1.012-.574-1.821v-4.576h.672Zm6.593 0V53.86h-.672V42.544h.672Zm6.616 0V53.86h-.673V42.544h.673Zm3.903 0v.59h-8.463v-.59h8.463ZM222.939 42.544V53.86h-.673V42.544h.673Zm6.462 0v.574h-6.593v-.574h6.593Zm.492 0V53.86h-.673V42.544h.673Zm6.611 0V53.86h-.673V42.544h.673Zm3.903 0v.59h-8.463v-.59h8.463ZM281.981 42.347c.46 0 .848.01 1.165.033.328.021.629.054.902.098.273.044.558.099.853.164l-.115.492a14.195 14.195 0 0 0-.869-.098 9.7 9.7 0 0 0-.853-.066c-.306-.01-.667-.016-1.083-.016-.874 0-1.569.17-2.082.508-.514.328-.886.875-1.116 1.64-.229.766-.344 1.799-.344 3.1 0 1.301.115 2.334.344 3.1.23.765.602 1.317 1.116 1.656.513.328 1.208.492 2.082.492.667 0 1.231-.016 1.69-.049.459-.033.907-.087 1.345-.164l.114.508a9.52 9.52 0 0 1-1.377.23 15.82 15.82 0 0 1-1.772.082c-1.038 0-1.869-.186-2.492-.558-.624-.382-1.072-1-1.345-1.853-.274-.853-.41-2-.41-3.444 0-1.443.136-2.591.41-3.444.273-.853.721-1.465 1.345-1.837.623-.383 1.454-.574 2.492-.574Zm12.014.197-.066.557h-5.839v10.76h-.672V42.543a84.928 84.928 0 0 1 1.673-.05 42.226 42.226 0 0 1 3.28 0c.536.011 1.077.028 1.624.05Zm-2.92 5.15c.886 0 1.58.103 2.083.311.514.208.875.541 1.083 1 .208.46.311 1.078.311 1.854 0 .645-.071 1.175-.213 1.59-.131.405-.339.723-.623.952-.284.219-.651.372-1.099.46a8.518 8.518 0 0 1-1.607.13c-.525 0-.984-.005-1.378-.016-.383 0-.749-.01-1.099-.033a68.96 68.96 0 0 1-1.115-.082l.23-.508c.24.01.656.022 1.246.033.601.01 1.329.016 2.181.016.678 0 1.22-.066 1.624-.197.416-.142.711-.393.886-.754.186-.372.279-.908.279-1.607 0-.646-.082-1.154-.246-1.526-.164-.371-.449-.64-.853-.803-.405-.164-.968-.246-1.69-.246h-3.444v-.574h3.444ZM335.4 42.413c.896 0 1.612.087 2.148.262.536.164.924.46 1.165.886.24.426.36 1.027.36 1.804 0 .809-.153 1.426-.459 1.853-.295.426-.782.672-1.46.738v.066c.842.076 1.427.371 1.755.885.328.514.492 1.225.492 2.132 0 .777-.114 1.378-.344 1.804-.23.427-.601.728-1.115.902-.514.165-1.198.247-2.05.247-.591 0-1.099-.006-1.526-.017-.415 0-.798-.01-1.148-.033-.35-.022-.727-.049-1.131-.082l.229-.508c.23.01.662.022 1.296.033.634.01 1.372.016 2.214.016.722 0 1.29-.066 1.706-.197.415-.13.716-.371.902-.721.186-.35.279-.853.279-1.51 0-.71-.099-1.257-.296-1.64-.196-.393-.519-.666-.967-.82-.438-.152-1.028-.234-1.772-.245H332.3v-.542h3.378c.667-.01 1.198-.076 1.591-.196.405-.132.689-.361.853-.69.175-.338.263-.814.263-1.426 0-.656-.099-1.154-.296-1.493-.186-.35-.503-.59-.951-.721-.437-.132-1.022-.197-1.755-.197-.503 0-.957.005-1.361.016-.405 0-.755.006-1.05.017-.284 0-.503.005-.656.016l-.229-.508c.349-.044.677-.071.984-.082.306-.022.639-.033 1-.033.372-.011.815-.017 1.329-.017Zm-2.641.13V53.86h-.672V42.544h.672Zm13.207-.196c.459 0 .847.01 1.164.033.329.021.629.054.903.098.273.044.557.099.852.164l-.114.492a14.223 14.223 0 0 0-.87-.098 9.64 9.64 0 0 0-.853-.066c-.306-.01-.666-.016-1.082-.016-.875 0-1.569.17-2.083.508-.514.328-.886.875-1.115 1.64-.23.766-.345 1.799-.345 3.1 0 1.301.115 2.334.345 3.1.229.765.601 1.317 1.115 1.656.514.328 1.208.492 2.083.492.667 0 1.23-.016 1.689-.049.46-.033.908-.087 1.345-.164l.115.508c-.448.11-.908.186-1.378.23a15.8 15.8 0 0 1-1.771.082c-1.039 0-1.87-.186-2.493-.558-.623-.382-1.071-1-1.345-1.853-.273-.853-.41-2-.41-3.444 0-1.443.137-2.591.41-3.444.274-.853.722-1.465 1.345-1.837.623-.383 1.454-.574 2.493-.574ZM7.077 73.63v11.317h-.673v-9.84c0-.132.006-.263.017-.394.01-.142.022-.279.033-.41l-2.985.984-.115-.476 3.05-1.18h.673Zm6.278 0v11.317h-.672v-9.84c0-.132.005-.263.016-.394l.033-.41-2.985.984-.115-.476 3.05-1.18h.673ZM62.616 73.63v11.317h-.673v-9.84c0-.132.006-.263.017-.394.01-.142.022-.279.033-.41l-2.985.984-.115-.476 3.05-1.18h.673Zm6.377-.196c.7 0 1.3.06 1.804.18.503.11.886.328 1.148.656.262.328.394.82.394 1.476 0 .503-.082.979-.246 1.427a5.864 5.864 0 0 1-.722 1.394c-.317.47-.733.995-1.247 1.575l-3.657 4.198c.317-.01.634-.016.951-.016h5.396v.623h-7.2v-.41c0-.065.011-.12.033-.164.022-.054.05-.11.082-.164l3.772-4.33c.755-.853 1.301-1.607 1.64-2.263.35-.656.514-1.307.492-1.952-.022-.492-.142-.853-.36-1.082-.22-.23-.52-.377-.903-.443a8.057 8.057 0 0 0-1.345-.098c-.338 0-.666.01-.984.032-.317.011-.65.044-1 .099-.35.044-.76.115-1.23.213l-.099-.508a14.78 14.78 0 0 1 1.329-.28c.372-.065.71-.108 1.017-.13.306-.022.618-.033.935-.033ZM115.108 73.63v11.317h-.672v-9.84c0-.132.005-.263.016-.394l.033-.41-2.985.984-.115-.476 3.051-1.18h.672Zm6.114-.196c.842 0 1.509.082 2.001.246.492.153.848.42 1.066.803.23.372.345.892.345 1.558 0 .46-.055.892-.164 1.296-.109.394-.29.727-.541 1-.252.274-.602.46-1.05.558v.066c.776.12 1.312.443 1.607.968.295.513.449 1.137.459 1.87.011.754-.092 1.382-.311 1.885-.208.492-.569.859-1.083 1.1-.503.24-1.186.36-2.05.36-.568 0-1.142-.027-1.722-.082a38.008 38.008 0 0 1-1.689-.197l.098-.525c.328.033.667.066 1.017.099.35.033.705.06 1.066.082.372.01.744.016 1.115.016.689 0 1.241-.087 1.657-.262.415-.186.722-.481.918-.886.208-.415.312-.956.312-1.623 0-.449-.071-.864-.213-1.247-.131-.383-.388-.689-.771-.918-.372-.241-.935-.361-1.689-.361l-2.1-.017v-.508l2.1-.033c.546-.01.978-.098 1.295-.262.317-.164.553-.372.706-.624.164-.251.268-.519.311-.803.044-.295.066-.58.066-.853-.011-.569-.109-1-.295-1.296-.175-.295-.465-.503-.87-.623-.393-.12-.94-.18-1.64-.18-.514 0-1.017.016-1.509.049s-.924.076-1.295.131l-.115-.508a20.824 20.824 0 0 1 1.492-.197c.481-.055.974-.082 1.476-.082ZM171.264 73.683V85h-.672v-9.84c0-.132.005-.263.016-.394l.033-.41-2.985.984-.115-.476 3.051-1.18h.672Zm7.164 0-3.575 6.872c-.109.208-.115.388-.016.542.109.153.267.23.475.23h6.954v.491l-1.574.082h-5.659a.958.958 0 0 1-.623-.213.934.934 0 0 1-.311-.541.997.997 0 0 1 .098-.656l3.543-6.807h.688Zm2.461 2.149V85h-.657v-7.266l.148-1.902h.509ZM224.313 73.63v11.317h-.672v-9.84c0-.132.005-.263.016-.394l.033-.41-2.985.984-.115-.476 3.051-1.18h.672Zm9.296 0-.065.591h-4.986l-.181 4.018.984.017c.799.022 1.482.082 2.051.18.579.098 1.055.268 1.427.508.371.23.645.558.82.985.185.426.278.984.278 1.672 0 .438-.038.87-.114 1.296a2.83 2.83 0 0 1-.476 1.148c-.241.34-.596.607-1.066.804-.459.197-1.077.295-1.853.295-.416 0-.892-.038-1.427-.115a11.998 11.998 0 0 1-1.657-.328l.115-.525c.503.11 1.011.203 1.525.28.514.065.957.098 1.329.098.842 0 1.47-.12 1.886-.361.426-.252.711-.596.853-1.033.142-.449.218-.968.229-1.558 0-.646-.087-1.154-.262-1.526a1.644 1.644 0 0 0-.853-.82c-.383-.175-.886-.284-1.509-.328a35.689 35.689 0 0 0-2.23-.115h-.378a.432.432 0 0 1-.229-.098.312.312 0 0 1-.066-.246L228 73.63h5.609ZM279.149 73.63v11.317h-.672v-9.84c0-.132.005-.263.016-.394l.033-.41-2.985.984-.115-.476 3.051-1.18h.672Zm7.492-.196c.208 0 .498.01.869.033.372.01.76.07 1.165.18l-.131.492a4.493 4.493 0 0 0-.591-.082 9.27 9.27 0 0 0-.574-.016c-.208-.011-.454-.017-.738-.017-.667 0-1.23.077-1.689.23a2.016 2.016 0 0 0-1.083.82c-.262.404-.453 1-.574 1.788-.12.776-.18 1.798-.18 3.067 0 .841.027 1.558.082 2.148.066.59.197 1.066.394 1.427.196.36.486.629.869.804.383.164.902.246 1.558.246.798 0 1.389-.12 1.771-.361.394-.24.651-.59.771-1.05.12-.47.181-1.033.181-1.69 0-.776-.072-1.399-.214-1.869-.142-.47-.399-.809-.771-1.017-.36-.218-.88-.328-1.558-.328-.404 0-.781.05-1.131.148-.35.098-.7.273-1.05.525-.35.251-.733.606-1.148 1.066l-.066-.377c.361-.503.711-.892 1.05-1.165a3.03 3.03 0 0 1 1.099-.574c.394-.12.853-.18 1.378-.18.787 0 1.399.12 1.836.36.449.241.766.64.952 1.198.186.557.279 1.312.279 2.263 0 .558-.039 1.066-.115 1.525-.077.449-.235.831-.476 1.148-.23.307-.574.547-1.033.722-.448.164-1.039.246-1.771.246-.766 0-1.384-.093-1.854-.279a2.174 2.174 0 0 1-1.082-.885c-.241-.416-.41-.957-.509-1.624-.087-.678-.131-1.503-.131-2.477 0-1.4.077-2.525.23-3.378.164-.864.415-1.515.754-1.952a2.482 2.482 0 0 1 1.296-.886c.536-.153 1.181-.23 1.935-.23ZM333.047 73.63v11.317h-.672v-9.84c0-.132.005-.263.016-.394l.033-.41-2.985.984-.115-.476 3.051-1.18h.672Zm9.002 0c.196 0 .344.028.442.083a.3.3 0 0 1 .164.246c.022.109.006.251-.049.426l-3.657 10.562h-.673l3.477-10.053a15.2 15.2 0 0 1 .131-.345c.044-.11.082-.219.115-.328h-6.15l-.033-.59h6.233Z"/><path stroke="#EF692B" stroke-linecap="round" stroke-width=".703" d="M228.125 73.164c0-7.093 10.113-16.188 15.186-10.415 7.216 8.211-2.74 17.831-7.659 23.008-1.805 1.898-5.407 5.547-6.34 8.264"/><path stroke="#EF692B" stroke-linecap="round" stroke-width=".703" d="M228.037 73.436c-.863-7.021-11.981-14.36-16.3-7.811-6.144 9.316 4.882 17.201 10.381 21.516 2.018 1.582 6.028 4.602 7.283 7.138"/></svg>