<svg xmlns="http://www.w3.org/2000/svg" width="357" height="568" fill="none"><path fill="#000" d="M168.823 6.172V20h-.822V6.172h.822Zm4.77 0v.721h-10.341v-.721h10.341Zm6.8 3.928c.588 0 1.096.093 1.524.28.427.188.748.488.962.902.227.401.34.942.34 1.624V20h-.601l-.16-2.124-.02-.14v-4.83c-.014-.615-.167-1.116-.461-1.503-.294-.388-.855-.582-1.684-.582a26.2 26.2 0 0 0-2.204.1 53.91 53.91 0 0 0-2.245.201l-.08-.601c.441-.067.895-.127 1.363-.18.481-.067.989-.12 1.523-.16.548-.054 1.129-.081 1.743-.081Zm2.325 4.028-.02.641-4.83.06c-.561.014-.982.16-1.262.441-.281.281-.421.689-.421 1.223v1.082c0 .601.16 1.056.481 1.363.321.294.788.447 1.403.46.481.014 1.002-.066 1.563-.24a7.645 7.645 0 0 0 1.643-.761c.535-.32.989-.675 1.363-1.062v.701c-.174.214-.421.44-.741.681-.321.228-.695.455-1.123.682a8.043 8.043 0 0 1-1.342.54c-.468.134-.949.201-1.443.201-.535 0-1.002-.093-1.403-.28a2.156 2.156 0 0 1-.902-.862c-.2-.374-.301-.828-.301-1.363v-1.202c0-.735.207-1.303.622-1.704.414-.4 1.008-.6 1.783-.6h4.93Zm12.125-3.788V20h-.762v-8.056c.013-.187.02-.374.02-.562h-.02c-.08.148-.174.301-.28.462l-.321.44L187.488 20h-.702v-9.66h.762v8.036c0 .188-.007.381-.02.582h.02c.107-.16.22-.32.341-.481.12-.174.233-.327.34-.461l5.932-7.676h.682Zm-2.085-4.268h.702c.013.48-.094.915-.321 1.302a2.508 2.508 0 0 1-.962.902c-.414.214-.915.32-1.503.32-.574 0-1.075-.106-1.503-.32a2.477 2.477 0 0 1-.982-.902 2.387 2.387 0 0 1-.32-1.302h.681c0 .628.194 1.122.581 1.483.401.347.915.52 1.543.52.628 0 1.129-.173 1.503-.52.388-.361.581-.855.581-1.483Zm16.033 4.268c.254 0 .381.12.381.361l.481 9.299h-.762l-.461-8.998h-.38l-3.307 7.796a.773.773 0 0 1-.14.2c-.04.053-.114.08-.221.08h-.882a.27.27 0 0 1-.2-.08.773.773 0 0 1-.14-.2l-3.307-7.796h-.381L199.011 20h-.761l.481-9.299c0-.24.127-.36.38-.36h1.003c.093 0 .167.026.22.08a.32.32 0 0 1 .14.2l2.746 6.513c.107.227.2.454.28.682.094.213.181.434.261.66h.381c.093-.226.18-.453.26-.68.094-.228.187-.448.281-.662l2.745-6.513c.067-.187.194-.28.381-.28h.982Zm12.296 0V20h-.761v-8.056c.013-.187.02-.374.02-.562h-.02c-.08.148-.174.301-.281.462l-.32.44L213.732 20h-.701v-9.66h.762v8.036c0 .188-.007.381-.021.582h.021c.106-.16.22-.32.34-.481.12-.174.234-.327.341-.461l5.932-7.676h.681Zm4.429 0V20h-.801v-9.66h.801Zm6.413 4.189v.641h-6.533v-.641h6.533Zm.602-4.189V20h-.782v-9.66h.782Zm5.497 0c.788 0 1.563.007 2.325.02.775 0 1.55.02 2.325.06l-.021.602h-4.368c-.468 0-.815.113-1.042.34-.228.228-.341.588-.341 1.083V20h-.802v-7.716c0-.614.167-1.089.501-1.423.348-.347.822-.52 1.423-.52ZM62.334 148.044c.393 0 .725.009.996.028.28.018.538.046.772.084.234.037.477.084.73.14l-.099.421a12.65 12.65 0 0 0-.744-.084 8.173 8.173 0 0 0-.729-.056c-.262-.01-.57-.014-.926-.014-.748 0-1.342.145-1.781.435-.44.28-.758.748-.954 1.402-.197.655-.295 1.539-.295 2.652 0 1.113.098 1.996.295 2.651.196.655.514 1.127.954 1.417.44.281 1.033.421 1.781.421.57 0 1.052-.014 1.445-.042.393-.028.776-.075 1.15-.14l.099.434a8.168 8.168 0 0 1-1.179.197c-.402.047-.907.07-1.515.07-.888 0-1.6-.159-2.132-.477-.533-.327-.917-.856-1.15-1.585-.234-.73-.351-1.712-.351-2.946 0-1.235.117-2.217.35-2.946.234-.73.618-1.253 1.15-1.571.534-.328 1.245-.491 2.133-.491Zm9.715-.449.14.421a6.725 6.725 0 0 1-.716.42 5.335 5.335 0 0 1-.659.253 7.445 7.445 0 0 1-.617.168c-.197.047-.393.098-.59.155-.598.168-1.056.392-1.374.673a2.41 2.41 0 0 0-.688 1.01c-.13.383-.22.828-.266 1.333a8 8 0 0 0-.042.491l-.028.463h.014c.056-.178.13-.365.224-.561.103-.197.253-.379.45-.548.195-.168.457-.299.785-.392.327-.103.739-.155 1.234-.155.664 0 1.188.108 1.571.323.384.215.66.57.828 1.066.168.486.253 1.136.253 1.95 0 .673-.075 1.267-.225 1.782-.14.505-.42.902-.842 1.192-.411.281-1.024.421-1.837.421-.543 0-.992-.066-1.347-.196a2.066 2.066 0 0 1-.856-.562 2.735 2.735 0 0 1-.477-.897 5.571 5.571 0 0 1-.196-1.193 23.446 23.446 0 0 1-.042-1.459c0-.767.028-1.435.084-2.006.065-.58.187-1.075.365-1.487.187-.411.458-.753.813-1.024.365-.271.842-.496 1.431-.673.234-.066.45-.122.646-.169.205-.046.406-.098.603-.154.206-.065.416-.145.631-.238a6.03 6.03 0 0 0 .73-.407Zm-2.245 4.222c-.701 0-1.23.117-1.585.351a1.701 1.701 0 0 0-.716.982c-.121.411-.182.902-.182 1.473 0 .739.08 1.323.239 1.754.158.43.411.734.757.911.346.178.804.267 1.375.267.56 0 1.01-.089 1.347-.267.336-.177.575-.481.715-.911.15-.431.224-1.02.224-1.768 0-.701-.065-1.253-.196-1.655-.13-.403-.355-.692-.673-.87-.318-.178-.753-.267-1.305-.267Zm7.666-.855c.739 0 1.328.116 1.767.35.44.225.753.599.94 1.123.197.514.295 1.206.295 2.076 0 .86-.098 1.552-.295 2.076-.187.524-.5.902-.94 1.136-.44.225-1.028.337-1.767.337-.739 0-1.333-.112-1.782-.337-.44-.234-.757-.612-.954-1.136-.196-.524-.294-1.216-.294-2.076 0-.87.098-1.562.294-2.076.197-.524.515-.898.954-1.123.45-.234 1.043-.35 1.782-.35Zm0 .505c-.608 0-1.09.093-1.445.28-.355.187-.613.5-.772.94-.15.44-.224 1.048-.224 1.824 0 .767.075 1.375.224 1.823.16.449.417.767.772.954.355.187.837.281 1.445.281.599 0 1.075-.094 1.43-.281.356-.187.609-.505.758-.954.16-.448.239-1.056.239-1.823 0-.776-.08-1.384-.239-1.824-.15-.44-.402-.753-.757-.94-.356-.187-.832-.28-1.431-.28Zm8.536-.505c.879 0 1.5.28 1.866.841.364.552.547 1.459.547 2.722 0 .86-.084 1.552-.253 2.076-.168.514-.435.888-.8 1.122-.364.225-.836.337-1.416.337-.459 0-.917-.061-1.375-.182a6.92 6.92 0 0 1-1.389-.576l.014-.378c.543.205 1.015.364 1.417.477.402.102.818.154 1.249.154.477 0 .86-.094 1.15-.281.29-.196.5-.514.631-.954.131-.448.197-1.047.197-1.795s-.066-1.347-.197-1.796c-.13-.449-.337-.771-.617-.968-.28-.196-.655-.294-1.122-.294-.43 0-.851.107-1.263.322-.411.206-.893.538-1.445.996l-.014-.449c.318-.299.631-.551.94-.757.309-.206.617-.36.926-.463.318-.103.636-.154.954-.154Zm-2.876.168.084 1.276.042.085v4.615l-.056.168c.028.253.042.482.042.688.01.205.014.43.014.673v2.175h-.56v-9.68h.434Zm12.021 0c.552 0 1.095.005 1.628.014.542 0 1.085.014 1.627.042l-.014.421h-3.058c-.328 0-.57.079-.73.238-.159.159-.238.412-.238.758v5.289h-.561v-5.401c0-.431.116-.763.35-.996.243-.244.576-.365.996-.365Zm7.403-.168c.739 0 1.328.116 1.768.35.439.225.752.599.939 1.123.197.514.295 1.206.295 2.076 0 .86-.098 1.552-.295 2.076-.187.524-.5.902-.939 1.136-.44.225-1.029.337-1.768.337-.739 0-1.333-.112-1.782-.337-.439-.234-.757-.612-.954-1.136-.196-.524-.294-1.216-.294-2.076 0-.87.098-1.562.294-2.076.197-.524.515-.898.954-1.123.449-.234 1.043-.35 1.782-.35Zm0 .505c-.608 0-1.09.093-1.445.28-.355.187-.613.5-.771.94-.15.44-.225 1.048-.225 1.824 0 .767.075 1.375.225 1.823.158.449.416.767.771.954.355.187.837.281 1.445.281.599 0 1.076-.094 1.431-.281.355-.187.608-.505.757-.954.159-.448.239-1.056.239-1.823 0-.776-.08-1.384-.239-1.824-.149-.44-.402-.753-.757-.94-.355-.187-.832-.28-1.431-.28Zm7.989-.505c.178 0 .379.009.603.028.234.009.468.032.702.07.243.037.462.093.659.168l-.098.379a5.853 5.853 0 0 0-.912-.112 16.262 16.262 0 0 0-.87-.028c-.636 0-1.146.093-1.529.28-.383.178-.664.486-.842.926-.168.44-.252 1.052-.252 1.838 0 .785.084 1.403.252 1.851.178.44.459.749.842.926.383.178.893.267 1.529.267a20.536 20.536 0 0 0 1.263-.056c.252-.028.486-.061.701-.098l.07.392a9.923 9.923 0 0 1-1.038.183 7.114 7.114 0 0 1-1.08.084c-.758 0-1.366-.112-1.824-.337-.458-.234-.79-.612-.996-1.136-.196-.524-.294-1.216-.294-2.076 0-.87.098-1.562.294-2.076.206-.524.538-.898.996-1.123.458-.234 1.066-.35 1.824-.35Zm6.347.168v6.762h-.576v-6.762h.576Zm2.637 0v.491h-5.85v-.491h5.85Zm4.068-.168c.916 0 1.594.168 2.034.505.449.327.678.823.687 1.487.019.598-.084 1.056-.308 1.374-.225.309-.618.463-1.179.463h-3.928v-.463h3.844c.384 0 .65-.121.8-.364.149-.244.219-.571.21-.982-.009-.533-.192-.917-.547-1.151-.346-.243-.874-.364-1.585-.364-.599 0-1.076.093-1.431.28-.346.187-.594.5-.744.94-.149.44-.224 1.029-.224 1.768 0 .785.089 1.407.266 1.865.178.449.454.767.828.954.374.187.861.281 1.459.281.44 0 .865-.019 1.277-.056.411-.038.757-.075 1.038-.112l.07.392a3.517 3.517 0 0 1-.687.141c-.29.046-.594.079-.912.098a9.87 9.87 0 0 1-.856.042c-.73 0-1.319-.117-1.768-.351-.449-.243-.776-.626-.982-1.15-.205-.524-.308-1.216-.308-2.076 0-.87.098-1.562.294-2.077.197-.514.51-.883.94-1.108.44-.224 1.01-.336 1.712-.336Zm10.469.168v6.762h-.533V152.252c.009-.131.014-.262.014-.393h-.014a4.134 4.134 0 0 1-.197.323l-.224.309-4.195 5.401h-.491v-6.762h.533v5.625c0 .131-.004.267-.014.407h.014c.075-.112.155-.224.239-.337.084-.121.164-.229.238-.322l4.153-5.373h.477Zm-1.459-2.988h.491a1.68 1.68 0 0 1-.225.912 1.752 1.752 0 0 1-.673.631c-.29.15-.641.224-1.052.224-.402 0-.753-.074-1.052-.224a1.728 1.728 0 0 1-.688-.631 1.678 1.678 0 0 1-.224-.912h.477c0 .439.135.785.407 1.038.28.243.64.365 1.08.365.439 0 .79-.122 1.052-.365.271-.253.407-.599.407-1.038ZM266.679 77.067v9.68h-.575v-9.68h.575Zm3.339 0v.506h-7.239v-.506h7.239Zm3.477 2.75c.879 0 1.501.28 1.866.842.365.551.547 1.459.547 2.721 0 .86-.084 1.553-.252 2.077-.169.514-.435.888-.8 1.122-.365.224-.837.336-1.417.336-.458 0-.916-.06-1.375-.182a6.925 6.925 0 0 1-1.388-.575l.014-.379a16.73 16.73 0 0 0 1.417.477c.402.103.818.154 1.248.154.477 0 .86-.093 1.15-.28.29-.197.501-.515.632-.954.131-.449.196-1.048.196-1.796s-.065-1.346-.196-1.795c-.131-.45-.337-.772-.618-.968-.28-.197-.654-.295-1.122-.295-.43 0-.851.108-1.262.323-.412.205-.894.537-1.445.996l-.014-.45c.318-.299.631-.551.94-.757a3.89 3.89 0 0 1 .925-.463c.318-.103.636-.154.954-.154Zm-2.876.168.085 1.277.042.084v4.615l-.056.169c.028.252.042.482.042.687.009.206.014.43.014.674v2.174h-.561v-9.68h.434Zm10.639-.168c.412 0 .767.066 1.067.196.299.131.523.342.673.632.159.28.238.659.238 1.136v4.966h-.42l-.113-1.487-.014-.098V81.78c-.009-.43-.117-.78-.322-1.052-.206-.271-.599-.407-1.179-.407-.477 0-.991.023-1.543.07-.542.038-1.066.084-1.571.14l-.056-.42c.308-.047.626-.09.954-.127.336-.046.692-.084 1.066-.112.383-.037.79-.056 1.22-.056Zm1.628 2.82-.014.449-3.381.042c-.393.01-.688.112-.884.308-.196.197-.295.482-.295.856v.758c0 .42.113.739.337.954.225.205.552.313.982.322.337.01.702-.046 1.094-.168a5.366 5.366 0 0 0 1.151-.533c.374-.225.692-.472.954-.744v.491c-.122.15-.295.309-.519.477a7.327 7.327 0 0 1-.786.477c-.29.15-.603.276-.94.379-.327.094-.664.14-1.01.14-.374 0-.701-.065-.982-.196a1.508 1.508 0 0 1-.631-.603c-.141-.262-.211-.58-.211-.954v-.842c0-.514.145-.912.435-1.192.29-.281.706-.421 1.249-.421h3.451Zm3.409-2.652v6.762h-.562v-6.762h.562Zm4.489 2.932v.45h-4.574v-.45h4.574Zm.421-2.932v6.762h-.548v-6.762h.548Zm5.307-.168c.177 0 .378.01.603.028.234.01.467.033.701.07.243.038.463.094.66.169l-.099.378a5.895 5.895 0 0 0-.911-.112 16.6 16.6 0 0 0-.87-.028c-.636 0-1.146.094-1.529.28-.384.178-.664.487-.842.926-.168.44-.253 1.053-.253 1.838 0 .786.085 1.403.253 1.852.178.44.458.748.842.926.383.177.893.266 1.529.266.14 0 .322-.004.547-.014.224-.009.463-.023.715-.042.253-.028.487-.06.702-.098l.07.393a9.903 9.903 0 0 1-1.038.182 7.09 7.09 0 0 1-1.08.084c-.758 0-1.366-.112-1.824-.336-.458-.234-.79-.613-.996-1.137-.196-.523-.295-1.215-.295-2.076 0-.87.099-1.562.295-2.076.206-.524.538-.898.996-1.122.458-.234 1.066-.351 1.824-.351Zm7.651 0c.982 0 1.763.122 2.343.365.589.234 1.015.612 1.276 1.136.262.514.393 1.197.393 2.048s-.131 1.539-.393 2.062c-.261.515-.687.894-1.276 1.137-.58.234-1.361.35-2.343.35-.973 0-1.753-.117-2.343-.35-.589-.243-1.014-.622-1.276-1.137-.262-.523-.393-1.21-.393-2.062 0-.85.131-1.534.393-2.048.262-.524.687-.902 1.276-1.136.59-.243 1.37-.365 2.343-.365Zm0 .505c-.851 0-1.529.094-2.034.28-.505.188-.87.501-1.094.94-.225.44-.337 1.048-.337 1.824 0 .767.112 1.375.337 1.824.224.449.589.767 1.094.954.505.177 1.183.266 2.034.266.842 0 1.515-.088 2.02-.266.505-.187.87-.505 1.094-.954.225-.449.337-1.057.337-1.824 0-.776-.112-1.384-.337-1.823-.224-.44-.589-.753-1.094-.94-.505-.187-1.178-.281-2.02-.281Zm.281-3.395v3.002l-.014.183v6.48l.014.17v2.903h-.547v-2.904l.014-.168v-6.467l-.014-.197v-3.002h.547Zm8.517 2.89c.917 0 1.595.168 2.034.505.449.327.678.823.688 1.487.018.599-.085 1.057-.309 1.375-.225.309-.617.463-1.178.463h-3.928v-.463h3.843c.384 0 .65-.122.8-.365.15-.243.22-.57.21-.982-.009-.533-.191-.916-.547-1.15-.346-.243-.874-.365-1.585-.365-.598 0-1.075.094-1.431.28-.346.188-.594.501-.743.94-.15.44-.225 1.03-.225 1.768 0 .786.089 1.408.267 1.866.177.449.453.767.827.954.375.187.861.28 1.459.28.44 0 .865-.018 1.277-.056.411-.037.758-.075 1.038-.112l.07.393a3.467 3.467 0 0 1-.687.14c-.29.047-.594.08-.912.098a9.815 9.815 0 0 1-.856.042c-.729 0-1.318-.117-1.767-.35-.449-.243-.777-.627-.982-1.15-.206-.524-.309-1.216-.309-2.077 0-.87.098-1.562.295-2.076.196-.514.509-.884.94-1.108.439-.225 1.01-.337 1.711-.337Zm8.154 0c.879 0 1.501.28 1.866.842.365.551.547 1.459.547 2.721 0 .86-.084 1.553-.252 2.077-.169.514-.435.888-.8 1.122-.365.224-.837.336-1.417.336-.458 0-.916-.06-1.375-.182a6.925 6.925 0 0 1-1.388-.575l.014-.379a16.73 16.73 0 0 0 1.417.477c.402.103.818.154 1.248.154.477 0 .861-.093 1.15-.28.29-.197.501-.515.632-.954.131-.449.196-1.048.196-1.796s-.065-1.346-.196-1.795c-.131-.45-.337-.772-.618-.968-.28-.197-.654-.295-1.122-.295-.43 0-.851.108-1.262.323-.412.205-.894.537-1.445.996l-.014-.45c.318-.299.631-.551.94-.757a3.89 3.89 0 0 1 .925-.463c.318-.103.636-.154.954-.154Zm-2.875.168.084 1.277.042.084v4.615l-.056.169c.028.252.042.482.042.687.009.206.014.43.014.674v2.174h-.561v-9.68h.435Zm13.059 0v6.762h-.575v-6.762h.575Zm2.637 0v.491h-5.85v-.49h5.85Zm7.219 0-3.002 7.351a6.133 6.133 0 0 1-.294.646 4.804 4.804 0 0 1-.393.673c-.15.215-.323.402-.519.561-.29.197-.608.327-.954.393a3.05 3.05 0 0 1-1.052.014l.042-.365c.281.01.566-.014.856-.07a1.83 1.83 0 0 0 .799-.337c.215-.196.407-.44.575-.73.169-.29.314-.588.435-.897l.281-.701c.065-.16.131-.328.196-.505.075-.188.145-.356.211-.505l2.216-5.528h.603Zm-5.835 0 2.23 5.542c.047.13.094.257.14.378.057.122.108.248.155.38h.28l-.21.462h-.253a.295.295 0 0 1-.154-.042.353.353 0 0 1-.098-.126l-2.694-6.594h.604Zm11.862 0v.463h-2.343c-.617 0-.94.318-.968.954a16.005 16.005 0 0 1-.196 1.894 9.052 9.052 0 0 1-.463 1.81c-.206.58-.5 1.127-.884 1.641h-.561c.383-.533.683-1.09.898-1.67.224-.588.383-1.196.477-1.823.103-.636.168-1.272.196-1.908.028-.44.159-.776.393-1.01.234-.234.575-.35 1.024-.35h2.427Zm-5.289 6.692-.084 2.104h-.379v-2.104h.463Zm6.271-.393v.463h-6.734v-.463h6.734Zm0 .393v2.104h-.393l-.084-2.104h.477Zm-.814-6.692v6.762h-.533v-6.762h.533Zm5.887-.168c.411 0 .766.066 1.066.196.299.131.523.342.673.632.159.28.239.659.239 1.136v4.966h-.421l-.113-1.487-.014-.098V81.78c-.009-.43-.116-.78-.322-1.052-.206-.271-.599-.407-1.179-.407-.477 0-.991.023-1.543.07-.542.038-1.066.084-1.571.14l-.056-.42c.309-.047.627-.09.954-.127.337-.046.692-.084 1.066-.112.383-.037.79-.056 1.221-.056Zm1.627 2.82-.014.449-3.381.042c-.393.01-.687.112-.884.308-.196.197-.294.482-.294.856v.758c0 .42.112.739.336.954.225.205.552.313.982.322.337.01.702-.046 1.094-.168a5.344 5.344 0 0 0 1.151-.533c.374-.225.692-.472.954-.744v.491c-.122.15-.295.309-.519.477a7.327 7.327 0 0 1-.786.477c-.29.15-.603.276-.94.379-.327.094-.664.14-1.01.14-.374 0-.701-.065-.982-.196a1.508 1.508 0 0 1-.631-.603c-.14-.262-.211-.58-.211-.954v-.842c0-.514.145-.912.435-1.192.29-.281.706-.421 1.249-.421h3.451ZM89.72 248.103c.711 0 1.272.084 1.684.252.42.169.724.463.912.884.186.421.28 1.005.28 1.754 0 .757-.094 1.346-.28 1.767a1.574 1.574 0 0 1-.898.884c-.412.159-.968.238-1.67.238h-1.066a21.31 21.31 0 0 1-.898-.042 55 55 0 0 0-.687-.042 2.278 2.278 0 0 1-.393-.042l.042-.379h2.974c.561-.009 1.006-.079 1.333-.21.337-.131.58-.369.73-.716.149-.346.224-.832.224-1.458 0-.636-.075-1.123-.225-1.459a1.277 1.277 0 0 0-.73-.716c-.326-.14-.77-.21-1.332-.21-.73 0-1.36.004-1.894.014-.523.009-.879.023-1.066.042l-.196-.449c.337-.038.65-.061.94-.07.299-.019.622-.028.968-.028.346-.01.762-.014 1.248-.014Zm-2.581.112v9.68h-.575v-9.68h.575Zm10.004 2.749c.917 0 1.595.169 2.034.505.45.328.678.823.688 1.488.019.598-.084 1.056-.309 1.374-.224.309-.617.463-1.178.463H94.45v-.463h3.844c.383 0 .65-.121.8-.364.149-.244.22-.571.21-.982-.01-.534-.192-.917-.547-1.151-.346-.243-.875-.365-1.586-.365-.598 0-1.075.094-1.43.281-.347.187-.594.5-.744.94-.15.44-.225 1.029-.225 1.768 0 .785.09 1.407.267 1.865.178.449.454.767.828.954.374.187.86.281 1.459.281.44 0 .865-.019 1.276-.056.412-.038.758-.075 1.038-.112l.07.392a3.52 3.52 0 0 1-.687.141c-.29.046-.594.079-.912.098a9.854 9.854 0 0 1-.855.042c-.73 0-1.32-.117-1.768-.351-.449-.243-.776-.626-.982-1.15-.206-.524-.309-1.216-.309-2.076 0-.87.099-1.562.295-2.077.196-.514.51-.883.94-1.108.44-.224 1.01-.337 1.711-.337Zm6.149.169c.551 0 1.094.004 1.627.014.542 0 1.085.014 1.627.042l-.014.421h-3.058c-.327 0-.57.079-.729.238-.159.159-.239.412-.239.758v5.289h-.561v-5.401c0-.431.117-.763.351-.996.243-.244.575-.365.996-.365Zm10.554 0v6.762h-.533V252.255c.009-.131.014-.262.014-.393h-.014a4.134 4.134 0 0 1-.197.323l-.224.309-4.195 5.401h-.491v-6.762h.533v5.625c0 .131-.004.267-.014.407h.014c.075-.112.155-.224.239-.337.084-.121.164-.229.238-.322l4.153-5.373h.477Zm5.317-.169c.177 0 .378.01.603.029.234.009.468.032.701.07.243.037.463.093.66.168l-.099.379a5.824 5.824 0 0 0-.911-.112 16.4 16.4 0 0 0-.87-.029c-.636 0-1.146.094-1.529.281-.384.178-.664.486-.842.926-.168.44-.252 1.052-.252 1.838 0 .785.084 1.403.252 1.851.178.44.458.749.842.926.383.178.893.267 1.529.267.14 0 .323-.005.547-.014.224-.01.463-.024.715-.042.253-.028.487-.061.702-.098l.07.392a9.923 9.923 0 0 1-1.038.183 7.114 7.114 0 0 1-1.08.084c-.758 0-1.366-.112-1.824-.337-.458-.234-.79-.612-.996-1.136-.196-.524-.295-1.216-.295-2.076 0-.87.099-1.562.295-2.077.206-.523.538-.897.996-1.122.458-.234 1.066-.351 1.824-.351Zm6.346.169v6.762h-.575v-6.762h.575Zm2.638 0v.491h-5.85v-.491h5.85Zm4.988-.169c.88 0 1.502.281 1.866.842.365.552.547 1.459.547 2.722 0 .86-.084 1.552-.252 2.076-.168.514-.435.888-.8 1.122-.365.225-.837.337-1.417.337a5.36 5.36 0 0 1-1.374-.182 6.89 6.89 0 0 1-1.389-.576l.014-.378c.542.205 1.014.364 1.417.477.402.102.818.154 1.248.154.477 0 .861-.094 1.151-.281.289-.196.5-.514.631-.954.131-.449.196-1.047.196-1.795s-.065-1.347-.196-1.796c-.131-.449-.337-.772-.617-.968-.281-.196-.655-.295-1.123-.295-.43 0-.851.108-1.262.323-.412.206-.893.538-1.445.996l-.014-.449c.318-.299.631-.552.94-.757.308-.206.617-.36.926-.463.318-.103.635-.155.953-.155Zm-2.875.169.084 1.276.042.085v4.615l-.056.168a6.3 6.3 0 0 1 .042.688c.009.205.014.43.014.673v2.174h-.561v-9.679h.435Zm10.639-.169c.411 0 .766.066 1.066.197.299.131.523.341.673.631.159.281.239.659.239 1.136v4.967h-.421l-.112-1.487-.015-.099v-3.381c-.009-.43-.116-.78-.322-1.052-.206-.271-.599-.407-1.179-.407-.477 0-.991.024-1.543.071a37.33 37.33 0 0 0-1.571.14l-.056-.421c.309-.047.627-.089.954-.126.337-.047.692-.084 1.066-.112.384-.038.79-.057 1.221-.057Zm1.627 2.82-.014.449-3.381.042c-.393.01-.687.112-.884.309-.196.196-.294.481-.294.856v.757c0 .421.112.739.336.954.225.206.552.313.982.323.337.009.702-.047 1.094-.169a5.315 5.315 0 0 0 1.151-.533c.374-.224.692-.472.954-.743v.491a3.034 3.034 0 0 1-.519.477 7.327 7.327 0 0 1-.786.477c-.29.149-.603.276-.94.378a3.64 3.64 0 0 1-1.01.141c-.374 0-.701-.066-.982-.197a1.51 1.51 0 0 1-.631-.603c-.14-.262-.211-.58-.211-.954v-.842c0-.514.145-.911.435-1.192.29-.281.706-.421 1.249-.421h3.451Zm3.409-2.651v6.762h-.547v-6.762h.547Zm5.527 6.299v.463h-5.611v-.463h5.611Zm-.786-6.299-.014 6.762h-.547v-6.762h.561Zm.786 6.691v2.077h-.379l-.098-2.077h.477Zm7.593-6.691v6.762h-.533V252.255c.009-.131.014-.262.014-.393h-.014a4.134 4.134 0 0 1-.197.323l-.224.309-4.195 5.401h-.491v-6.762h.533v5.625c0 .131-.004.267-.014.407h.014c.075-.112.155-.224.239-.337.084-.121.163-.229.238-.322l4.153-5.373h.477Zm4.601-.042c.458 0 .842.004 1.15.014.309 0 .59.009.842.028.262.009.543.028.842.056l-.168.435c-.122-.019-.426-.033-.912-.042a87.163 87.163 0 0 0-1.74-.014c-.654 0-1.108.145-1.361.435-.243.28-.364.64-.364 1.08 0 .542.14.958.421 1.248.28.29.766.435 1.458.435h2.512l.028.449H163.81c-.448 0-.809.08-1.08.239-.262.149-.435.36-.519.631l-.547 1.81h-.603l.631-1.978c.066-.188.164-.342.295-.463.131-.131.285-.23.463-.295.187-.065.383-.112.589-.14v-.042c-.384-.028-.697-.127-.94-.295a1.531 1.531 0 0 1-.547-.687 2.75 2.75 0 0 1-.168-.996c0-.262.037-.505.112-.73.084-.234.21-.435.379-.603.177-.178.411-.318.701-.421.299-.103.659-.154 1.08-.154Zm2.834.098v6.706h-.547v-6.706h.547ZM191.576 352.025v9.68h-.575v-9.68h.575Zm5.485 4.237v.505h-5.597v-.505h5.597Zm.421-4.237v9.68h-.575v-9.68h.575Zm5.782 2.75c.411 0 .767.065 1.066.196.299.131.524.342.673.632.159.28.239.659.239 1.136v4.966h-.421l-.112-1.487-.014-.098v-3.381c-.01-.43-.117-.781-.323-1.052-.206-.271-.599-.407-1.178-.407-.477 0-.992.023-1.544.07-.542.038-1.066.084-1.571.14l-.056-.42c.309-.047.627-.089.954-.127.337-.046.692-.084 1.066-.112.384-.037.79-.056 1.221-.056Zm1.627 2.82-.014.449-3.381.042c-.393.009-.687.112-.884.308-.196.197-.294.482-.294.856v.758c0 .42.112.738.336.954.225.205.552.313.982.322.337.01.702-.047 1.095-.168a5.377 5.377 0 0 0 1.15-.533c.374-.225.692-.472.954-.744v.491c-.122.15-.295.309-.519.477a7.327 7.327 0 0 1-.786.477c-.29.15-.603.276-.94.379-.327.094-.664.14-1.01.14-.374 0-.701-.065-.982-.196a1.51 1.51 0 0 1-.631-.603c-.14-.262-.21-.58-.21-.954v-.842c0-.514.145-.912.434-1.192.29-.281.707-.421 1.249-.421h3.451Zm3.016-2.652v2.666c0 .383.089.659.267.827.177.169.458.253.841.253a6.26 6.26 0 0 0 1.431-.154c.449-.103.959-.295 1.529-.576l.042.463a6.998 6.998 0 0 1-1.641.604 7.44 7.44 0 0 1-1.529.168c-.486 0-.861-.117-1.122-.351-.253-.243-.379-.608-.379-1.094v-2.806h.561Zm4.489 0v6.762h-.561v-6.762h.561Zm5.65-.168c.411 0 .767.065 1.066.196.299.131.524.342.673.632.159.28.239.659.239 1.136v4.966h-.421l-.112-1.487-.014-.098v-3.381c-.01-.43-.117-.781-.323-1.052-.206-.271-.599-.407-1.179-.407-.476 0-.991.023-1.543.07-.542.038-1.066.084-1.571.14l-.056-.42c.309-.047.627-.089.954-.127.337-.046.692-.084 1.066-.112.384-.037.79-.056 1.221-.056Zm1.627 2.82-.014.449-3.381.042c-.393.009-.687.112-.884.308-.196.197-.294.482-.294.856v.758c0 .42.112.738.336.954.225.205.552.313.982.322.337.01.702-.047 1.095-.168a5.377 5.377 0 0 0 1.15-.533c.374-.225.692-.472.954-.744v.491c-.122.15-.295.309-.519.477a7.327 7.327 0 0 1-.786.477c-.29.15-.603.276-.94.379-.327.094-.664.14-1.01.14-.374 0-.701-.065-.982-.196a1.51 1.51 0 0 1-.631-.603c-.14-.262-.21-.58-.21-.954v-.842c0-.514.144-.912.434-1.192.29-.281.706-.421 1.249-.421h3.451Zm7.744-2.652v.463h-2.343c-.328 0-.566.08-.716.239-.149.149-.243.388-.28.715-.047.44-.103.903-.169 1.389-.056.486-.131.959-.224 1.417-.094.458-.229.87-.407 1.234a2.973 2.973 0 0 1-.393.632 2.067 2.067 0 0 1-.547.477c-.206.121-.439.21-.701.266l-.07-.449c.233-.093.425-.196.575-.308.159-.122.29-.253.393-.393.103-.14.187-.281.252-.421.14-.281.248-.599.323-.954.084-.355.154-.715.21-1.08.056-.374.098-.725.126-1.052.038-.337.071-.613.099-.828.056-.439.196-.771.421-.996.233-.234.589-.351 1.066-.351h2.385Zm.182 0v6.762h-.547v-6.762h.547Zm5.232-.168c.739 0 1.328.117 1.768.351.439.224.753.598.94 1.122.196.514.294 1.206.294 2.076 0 .861-.098 1.553-.294 2.076-.187.524-.501.903-.94 1.137-.44.224-1.029.336-1.768.336-.739 0-1.333-.112-1.782-.336-.439-.234-.757-.613-.953-1.137-.197-.523-.295-1.215-.295-2.076 0-.87.098-1.562.295-2.076.196-.524.514-.898.953-1.122.449-.234 1.043-.351 1.782-.351Zm0 .505c-.608 0-1.089.094-1.445.281-.355.187-.612.5-.771.94-.15.439-.225 1.047-.225 1.823 0 .767.075 1.375.225 1.824.159.449.416.767.771.954.356.187.837.28 1.445.28.599 0 1.076-.093 1.431-.28.355-.187.608-.505.758-.954.159-.449.238-1.057.238-1.824 0-.776-.079-1.384-.238-1.823-.15-.44-.403-.753-.758-.94-.355-.187-.832-.281-1.431-.281Zm13.594-3.872.14.421a6.731 6.731 0 0 1-.715.421 5.213 5.213 0 0 1-.66.252 7.342 7.342 0 0 1-.617.169 14.19 14.19 0 0 0-.589.154c-.599.168-1.057.393-1.375.673a2.412 2.412 0 0 0-.687 1.01c-.131.384-.22.828-.267 1.333a7.545 7.545 0 0 0-.042.491l-.028.463h.014c.056-.178.131-.365.225-.561.102-.196.252-.379.448-.547.197-.168.459-.299.786-.393.327-.103.739-.154 1.235-.154.664 0 1.187.107 1.571.322.383.216.659.571.827 1.067.169.486.253 1.136.253 1.95 0 .673-.075 1.267-.225 1.781-.14.505-.42.903-.841 1.193-.412.28-1.024.42-1.838.42-.542 0-.991-.065-1.347-.196a2.074 2.074 0 0 1-.855-.561 2.743 2.743 0 0 1-.477-.898 5.554 5.554 0 0 1-.197-1.192 23.551 23.551 0 0 1-.042-1.459c0-.767.028-1.436.084-2.006.066-.58.187-1.076.365-1.487.187-.412.458-.753.814-1.024.364-.272.841-.496 1.431-.674.233-.065.448-.121.645-.168.206-.047.407-.098.603-.155a6.33 6.33 0 0 0 .631-.238c.225-.103.468-.238.73-.407Zm-2.245 4.223c-.701 0-1.23.117-1.585.35a1.703 1.703 0 0 0-.715.982c-.122.412-.183.903-.183 1.473 0 .739.08 1.324.239 1.754.159.43.411.734.757.912.346.178.805.266 1.375.266.561 0 1.01-.088 1.347-.266.337-.178.575-.482.715-.912.15-.43.225-1.019.225-1.768 0-.701-.066-1.253-.197-1.655-.131-.402-.355-.692-.673-.87-.318-.177-.753-.266-1.305-.266Zm8.101-.856c.412 0 .767.065 1.066.196.3.131.524.342.674.632.159.28.238.659.238 1.136v4.966h-.421l-.112-1.487-.014-.098v-3.381c-.009-.43-.117-.781-.323-1.052-.205-.271-.598-.407-1.178-.407-.477 0-.991.023-1.543.07a38.92 38.92 0 0 0-1.571.14l-.056-.42c.308-.047.626-.089.953-.127.337-.046.693-.084 1.067-.112.383-.037.79-.056 1.22-.056Zm1.627 2.82-.014.449-3.38.042c-.393.009-.688.112-.884.308-.197.197-.295.482-.295.856v.758c0 .42.112.738.337.954.224.205.552.313.982.322.336.01.701-.047 1.094-.168a5.355 5.355 0 0 0 1.15-.533c.374-.225.692-.472.954-.744v.491c-.121.15-.294.309-.519.477a7.209 7.209 0 0 1-.785.477c-.29.15-.604.276-.94.379-.328.094-.664.14-1.01.14-.374 0-.702-.065-.982-.196a1.507 1.507 0 0 1-.632-.603c-.14-.262-.21-.58-.21-.954v-.842c0-.514.145-.912.435-1.192.29-.281.706-.421 1.248-.421h3.451Zm3.409-2.652v6.762h-.561v-6.762h.561Zm4.489 2.932v.449h-4.573v-.449h4.573Zm.421-2.932v6.762h-.547v-6.762h.547Zm7.79 0c-.14.318-.285.632-.435.94-.14.3-.289.585-.448.856-.15.262-.318.496-.505.701a2.596 2.596 0 0 1-.618.505 1.616 1.616 0 0 1-.743.225v.014a2.061 2.061 0 0 1 1.431.729c.196.216.374.468.533.758.168.281.332.594.491.94.159.346.322.711.491 1.094h-.603a90.991 90.991 0 0 0-.505-1.094 8.49 8.49 0 0 0-.491-.926 3.106 3.106 0 0 0-.534-.687 1.832 1.832 0 0 0-.673-.435 2.222 2.222 0 0 0-.87-.155l.028-.449c.374 0 .702-.084.982-.252.29-.168.538-.393.744-.673.215-.281.411-.599.589-.954.187-.365.369-.744.547-1.137h.589Zm-4.699 0v2.203a6.212 6.212 0 0 1-.07 1.024 5.4 5.4 0 0 1 .056.519c.009.168.014.332.014.491v2.525h-.561v-6.762h.561Zm1.627 3.016v.449h-1.852v-.449h1.852Zm7.654-3.184c.917 0 1.595.168 2.035.505.448.327.678.823.687 1.487.019.599-.084 1.057-.309 1.375-.224.308-.617.463-1.178.463h-3.928v-.463h3.844c.383 0 .65-.122.799-.365.15-.243.22-.57.211-.982-.01-.533-.192-.916-.547-1.15-.346-.243-.875-.365-1.586-.365-.598 0-1.075.094-1.43.281-.346.187-.594.5-.744.94-.15.439-.224 1.028-.224 1.767 0 .786.088 1.408.266 1.866.178.449.454.767.828.954.374.187.86.28 1.459.28.439 0 .865-.018 1.276-.056.412-.037.758-.075 1.038-.112l.071.393a3.468 3.468 0 0 1-.688.14c-.29.047-.594.08-.912.098a9.848 9.848 0 0 1-.855.042c-.73 0-1.319-.116-1.768-.35-.449-.243-.776-.627-.982-1.151-.206-.523-.309-1.215-.309-2.076 0-.87.099-1.562.295-2.076.196-.514.51-.884.94-1.108.439-.225 1.01-.337 1.711-.337Zm6.913.168v6.762h-.575v-6.762h.575Zm2.637 0v.491h-5.85v-.491h5.85Zm4.792-.168c.412 0 .767.065 1.067.196.299.131.523.342.673.632.159.28.238.659.238 1.136v4.966h-.42l-.113-1.487-.014-.098v-3.381c-.009-.43-.117-.781-.322-1.052-.206-.271-.599-.407-1.179-.407-.477 0-.991.023-1.543.07-.542.038-1.066.084-1.571.14l-.056-.42c.308-.047.626-.089.954-.127.336-.046.692-.084 1.066-.112.383-.037.79-.056 1.22-.056Zm1.628 2.82-.014.449-3.381.042c-.393.009-.688.112-.884.308-.196.197-.295.482-.295.856v.758c0 .42.113.738.337.954.225.205.552.313.982.322.337.01.702-.047 1.094-.168a5.385 5.385 0 0 0 1.151-.533c.374-.225.692-.472.954-.744v.491c-.122.15-.295.309-.519.477a7.327 7.327 0 0 1-.786.477c-.29.15-.603.276-.94.379-.327.094-.664.14-1.01.14-.374 0-.701-.065-.982-.196a1.504 1.504 0 0 1-.631-.603c-.141-.262-.211-.58-.211-.954v-.842c0-.514.145-.912.435-1.192.29-.281.706-.421 1.249-.421h3.451ZM220.386 481.978c.767 0 1.379.074 1.838.224.458.14.785.393.982.758.205.364.308.879.308 1.543 0 .692-.131 1.22-.393 1.585-.252.365-.668.575-1.248.631v.056c.72.066 1.22.318 1.501.758.281.439.421 1.047.421 1.824 0 .664-.098 1.178-.295 1.543-.196.365-.514.622-.954.771-.43.141-1.01.211-1.739.211-.384 0-.758-.01-1.123-.028-.355-.01-.696-.033-1.024-.07a9.503 9.503 0 0 1-.939-.127l.07-.421c.243.019.626.047 1.15.085.524.037 1.127.056 1.81.056.608 0 1.089-.052 1.445-.155.355-.112.612-.318.771-.617.159-.299.239-.734.239-1.304 0-.608-.085-1.076-.253-1.403a1.377 1.377 0 0 0-.814-.702c-.374-.14-.879-.21-1.515-.21h-1.473v-.463h1.473c.571 0 1.02-.056 1.347-.168.337-.113.58-.309.73-.59.149-.29.224-.696.224-1.22 0-.561-.084-.991-.252-1.291-.159-.299-.426-.5-.8-.603-.374-.112-.875-.168-1.501-.168-.571 0-1.062.018-1.473.056-.412.028-.716.047-.912.056l-.07-.421c.411-.065.809-.112 1.192-.14.393-.038.819-.056 1.277-.056Zm8.794 2.861c.412 0 .767.066 1.066.197.3.131.524.341.674.631.159.281.238.659.238 1.136v4.967h-.421l-.112-1.487-.014-.099v-3.381c-.009-.43-.117-.78-.322-1.052-.206-.271-.599-.407-1.179-.407-.477 0-.991.024-1.543.071a37.33 37.33 0 0 0-1.571.14l-.056-.421c.308-.047.626-.089.954-.126.336-.047.692-.084 1.066-.112.383-.038.79-.057 1.22-.057Zm1.628 2.82-.014.449-3.381.042c-.393.01-.688.112-.884.309-.196.196-.295.481-.295.856v.757c0 .421.113.739.337.954.224.206.552.313.982.323.337.009.701-.047 1.094-.169a5.337 5.337 0 0 0 1.151-.533c.374-.224.692-.472.954-.743v.491a3.007 3.007 0 0 1-.52.477 7.209 7.209 0 0 1-.785.477c-.29.149-.603.276-.94.378a3.64 3.64 0 0 1-1.01.141c-.374 0-.702-.066-.982-.197a1.504 1.504 0 0 1-.631-.603c-.141-.262-.211-.58-.211-.954v-.842c0-.514.145-.911.435-1.192.29-.281.706-.421 1.249-.421h3.451Zm5.344-2.721c.692 0 1.24.051 1.642.154.411.103.706.285.883.547.178.253.267.622.267 1.108 0 .477-.117.842-.351 1.095-.224.243-.594.388-1.108.434v.029c.636.046 1.076.224 1.319.533.252.299.379.72.379 1.262 0 .458-.089.814-.267 1.066-.168.253-.444.431-.828.533-.383.103-.902.155-1.557.155-.439 0-.818-.005-1.136-.014-.318 0-.613-.01-.884-.028-.262-.01-.547-.024-.856-.042l.169-.407c.177.009.505.018.982.028h1.669c.524 0 .94-.038 1.249-.112.318-.075.547-.211.687-.407.14-.197.21-.482.21-.856 0-.58-.168-.977-.505-1.192-.327-.216-.907-.323-1.739-.323h-2.567v-.421h2.567c.495-.009.888-.047 1.178-.112.299-.075.515-.206.646-.393.13-.187.196-.454.196-.8 0-.374-.075-.654-.225-.841-.14-.197-.378-.332-.715-.407-.327-.075-.767-.112-1.319-.112-.364-.01-.701-.01-1.01 0-.299 0-.561.004-.785.014-.225 0-.398.004-.519.014l-.169-.421c.272-.028.519-.047.744-.056.234-.01.491-.014.771-.014.281-.01.608-.014.982-.014Zm-1.964.084v6.748h-.533v-6.748h.533Zm9.735-.183c.916 0 1.594.169 2.034.505.449.328.678.823.687 1.488.019.598-.084 1.056-.308 1.374-.225.309-.618.463-1.179.463h-3.928v-.463h3.844c.383 0 .65-.121.8-.364.149-.244.219-.571.21-.982-.009-.534-.192-.917-.547-1.151-.346-.243-.874-.365-1.585-.365-.599 0-1.076.094-1.431.281-.346.187-.594.5-.744.94-.149.44-.224 1.029-.224 1.768 0 .785.089 1.407.266 1.865.178.449.454.767.828.954.374.187.861.281 1.459.281.44 0 .865-.019 1.277-.056.411-.038.757-.075 1.038-.112l.07.392a3.517 3.517 0 0 1-.687.141c-.29.046-.594.079-.912.098a9.87 9.87 0 0 1-.856.042c-.73 0-1.319-.117-1.768-.351-.449-.243-.776-.626-.982-1.15-.205-.524-.308-1.216-.308-2.076 0-.87.098-1.562.294-2.077.197-.514.51-.883.94-1.108.44-.224 1.01-.337 1.712-.337Zm8.154 0c.879 0 1.501.281 1.866.842.365.552.547 1.459.547 2.722 0 .86-.084 1.552-.253 2.076-.168.514-.434.888-.799 1.122-.365.225-.837.337-1.417.337-.458 0-.917-.061-1.375-.182a6.938 6.938 0 0 1-1.389-.576l.014-.378c.543.205 1.015.364 1.417.477.402.102.819.154 1.249.154.477 0 .86-.094 1.15-.281.29-.196.5-.514.631-.954.131-.449.197-1.047.197-1.795s-.066-1.347-.197-1.796c-.131-.449-.336-.772-.617-.968-.28-.196-.654-.295-1.122-.295-.43 0-.851.108-1.263.323-.411.206-.893.538-1.445.996l-.014-.449c.318-.299.632-.552.94-.757a3.91 3.91 0 0 1 .926-.463c.318-.103.636-.155.954-.155Zm-2.876.169.084 1.276.043.085v4.615l-.057.168a6.3 6.3 0 0 1 .042.688c.01.205.015.43.015.673v2.174h-.562v-9.679h.435Zm8.072 0v6.762h-.561v-6.762h.561Zm7.631 6.299v.463h-7.729v-.463h7.729Zm-3.661-6.299v6.762h-.547v-6.762h.547Zm3.984 0v6.762h-.547v-6.762h.547Zm5.136-.169c.917 0 1.595.169 2.034.505.449.328.678.823.688 1.488.018.598-.085 1.056-.309 1.374-.224.309-.617.463-1.178.463h-3.928v-.463h3.843c.384 0 .65-.121.8-.364.15-.244.22-.571.21-.982-.009-.534-.191-.917-.547-1.151-.346-.243-.874-.365-1.585-.365-.598 0-1.075.094-1.431.281-.346.187-.594.5-.743.94-.15.44-.225 1.029-.225 1.768 0 .785.089 1.407.267 1.865.178.449.453.767.827.954.375.187.861.281 1.459.281.44 0 .866-.019 1.277-.056.412-.038.758-.075 1.038-.112l.07.392a3.517 3.517 0 0 1-.687.141c-.29.046-.594.079-.912.098a9.851 9.851 0 0 1-.856.042c-.729 0-1.318-.117-1.767-.351-.449-.243-.777-.626-.982-1.15-.206-.524-.309-1.216-.309-2.076 0-.87.098-1.562.295-2.077.196-.514.509-.883.94-1.108.439-.224 1.01-.337 1.711-.337Zm5.391.169v6.762h-.561v-6.762h.561Zm4.489 2.932v.449h-4.573v-.449h4.573Zm.421-2.932v6.762h-.547v-6.762h.547Zm8.169 0v6.762h-.533V486.13c.009-.131.014-.262.014-.393h-.014a4.134 4.134 0 0 1-.197.323l-.224.309-4.195 5.401h-.491v-6.762h.533v5.625c0 .131-.004.267-.014.407h.014c.075-.112.155-.224.239-.337.084-.121.164-.229.238-.322l4.153-5.373h.477Zm5.148-.169c.917 0 1.595.169 2.034.505.449.328.678.823.688 1.488.019.598-.084 1.056-.309 1.374-.224.309-.617.463-1.178.463h-3.928v-.463h3.844c.383 0 .65-.121.799-.364.15-.244.22-.571.211-.982-.01-.534-.192-.917-.547-1.151-.346-.243-.875-.365-1.586-.365-.598 0-1.075.094-1.431.281-.346.187-.593.5-.743.94-.15.44-.225 1.029-.225 1.768 0 .785.089 1.407.267 1.865.178.449.454.767.828.954.374.187.86.281 1.459.281.439 0 .865-.019 1.276-.056.412-.038.758-.075 1.038-.112l.071.392a3.53 3.53 0 0 1-.688.141c-.29.046-.594.079-.912.098a9.848 9.848 0 0 1-.855.042c-.73 0-1.319-.117-1.768-.351-.449-.243-.776-.626-.982-1.15-.206-.524-.309-1.216-.309-2.076 0-.87.099-1.562.295-2.077.196-.514.51-.883.94-1.108.439-.224 1.01-.337 1.711-.337ZM124.7 536.199v9.68h-.575v-9.68h.575Zm3.339 0v.505H120.8v-.505h7.239Zm3.478 2.75c.879 0 1.501.28 1.865.842.365.551.548 1.459.548 2.721 0 .86-.085 1.553-.253 2.076-.168.515-.435.889-.8 1.123-.364.224-.837.336-1.416.336-.459 0-.917-.061-1.375-.182a6.967 6.967 0 0 1-1.389-.575l.014-.379a16.67 16.67 0 0 0 1.417.477c.402.103.818.154 1.248.154.477 0 .861-.093 1.151-.28.29-.197.5-.515.631-.954.131-.449.196-1.048.196-1.796s-.065-1.347-.196-1.796c-.131-.448-.337-.771-.617-.968-.281-.196-.655-.294-1.123-.294-.43 0-.851.107-1.262.323-.412.205-.893.537-1.445.996l-.014-.449c.318-.3.631-.552.94-.758.308-.206.617-.36.926-.463a3.08 3.08 0 0 1 .954-.154Zm-2.876.168.084 1.277.042.084v4.615l-.056.169c.028.252.042.481.042.687.009.206.014.43.014.673v2.175h-.561v-9.68h.435Zm10.639-.168c.411 0 .767.065 1.066.196.299.131.524.342.673.632.159.28.239.659.239 1.136v4.966h-.421l-.112-1.487-.014-.098v-3.381c-.01-.43-.117-.781-.323-1.052-.206-.272-.599-.407-1.178-.407-.477 0-.992.023-1.544.07a37.33 37.33 0 0 0-1.571.14l-.056-.421a30 30 0 0 1 .954-.126c.337-.047.692-.084 1.066-.112.384-.037.791-.056 1.221-.056Zm1.627 2.82-.014.448-3.381.043c-.393.009-.687.112-.884.308-.196.197-.294.482-.294.856v.757c0 .421.112.739.336.954.225.206.552.314.982.323.337.009.702-.047 1.095-.168a5.377 5.377 0 0 0 1.15-.533c.374-.225.692-.473.954-.744v.491c-.122.15-.295.309-.519.477a7.23 7.23 0 0 1-.786.477c-.29.15-.603.276-.94.379-.327.093-.664.14-1.01.14-.374 0-.701-.065-.982-.196a1.519 1.519 0 0 1-.631-.604c-.14-.261-.21-.579-.21-.953v-.842c0-.515.145-.912.435-1.193.289-.28.706-.42 1.248-.42h3.451Zm3.409-2.652v6.762h-.561v-6.762h.561Zm4.489 2.932v.449h-4.573v-.449h4.573Zm.421-2.932v6.762h-.547v-6.762h.547Zm5.307-.168c.178 0 .379.009.603.028.234.009.468.033.702.07.243.037.463.094.659.168l-.098.379a5.977 5.977 0 0 0-.912-.112 16.262 16.262 0 0 0-.87-.028c-.636 0-1.146.093-1.529.28-.383.178-.664.487-.842.926-.168.44-.252 1.052-.252 1.838s.084 1.403.252 1.852c.178.439.459.748.842.926.383.177.893.266 1.529.266a20.536 20.536 0 0 0 1.263-.056c.252-.028.486-.061.701-.098l.07.393a9.932 9.932 0 0 1-1.038.182 7.114 7.114 0 0 1-1.08.084c-.758 0-1.365-.112-1.824-.336-.458-.234-.79-.613-.996-1.137-.196-.523-.294-1.216-.294-2.076 0-.87.098-1.562.294-2.076.206-.524.538-.898.996-1.122.459-.234 1.066-.351 1.824-.351Zm7.651 0c.982 0 1.763.121 2.343.365.589.233 1.015.612 1.277 1.136.262.514.393 1.197.393 2.048s-.131 1.539-.393 2.062c-.262.515-.688.893-1.277 1.137-.58.233-1.361.35-2.343.35-.972 0-1.753-.117-2.342-.35-.59-.244-1.015-.622-1.277-1.137-.262-.523-.393-1.211-.393-2.062 0-.851.131-1.534.393-2.048.262-.524.687-.903 1.277-1.136.589-.244 1.37-.365 2.342-.365Zm0 .505c-.851 0-1.529.093-2.034.28-.505.187-.869.501-1.094.94-.224.44-.337 1.048-.337 1.824 0 .767.113 1.375.337 1.824.225.449.589.767 1.094.954.505.177 1.183.266 2.034.266.842 0 1.515-.089 2.021-.266.505-.187.869-.505 1.094-.954.224-.449.336-1.057.336-1.824 0-.776-.112-1.384-.336-1.824-.225-.439-.589-.753-1.094-.94-.506-.187-1.179-.28-2.021-.28Zm.281-3.395v3.002l-.014.182v6.482l.014.168v2.904h-.547v-2.904l.014-.168v-6.468l-.014-.196v-3.002h.547Zm8.517 2.89c.917 0 1.595.168 2.034.505.449.327.679.823.688 1.487.019.598-.084 1.057-.309 1.375-.224.308-.617.463-1.178.463h-3.928v-.463h3.844c.383 0 .65-.122.799-.365.15-.243.22-.571.211-.982-.01-.533-.192-.917-.547-1.15-.346-.244-.875-.365-1.586-.365-.598 0-1.075.093-1.431.28-.346.187-.593.501-.743.94-.15.44-.224 1.029-.224 1.768 0 .786.088 1.407.266 1.866.178.449.454.767.828.954.374.187.86.28 1.459.28.439 0 .865-.018 1.276-.056.412-.037.758-.075 1.038-.112l.071.393a3.468 3.468 0 0 1-.688.14c-.29.047-.594.079-.912.098a9.848 9.848 0 0 1-.855.042c-.73 0-1.319-.117-1.768-.35-.449-.244-.776-.627-.982-1.151-.206-.524-.309-1.216-.309-2.076 0-.87.099-1.562.295-2.076.196-.515.51-.884.94-1.108.439-.225 1.01-.337 1.711-.337Zm8.155 0c.879 0 1.501.28 1.865.842.365.551.548 1.459.548 2.721 0 .86-.085 1.553-.253 2.076-.168.515-.435.889-.8 1.123-.364.224-.837.336-1.416.336-.459 0-.917-.061-1.375-.182a6.992 6.992 0 0 1-1.389-.575l.014-.379a16.67 16.67 0 0 0 1.417.477c.402.103.818.154 1.248.154.477 0 .861-.093 1.151-.28.29-.197.5-.515.631-.954.131-.449.196-1.048.196-1.796s-.065-1.347-.196-1.796c-.131-.448-.337-.771-.617-.968-.281-.196-.655-.294-1.122-.294-.431 0-.852.107-1.263.323-.412.205-.893.537-1.445.996l-.014-.449c.318-.3.631-.552.94-.758.309-.206.617-.36.926-.463a3.08 3.08 0 0 1 .954-.154Zm-2.876.168.084 1.277.042.084v4.615l-.056.169c.028.252.042.481.042.687.009.206.014.43.014.673v2.175h-.561v-9.68h.435Zm13.396-.168c.739 0 1.328.117 1.768.351.439.224.752.598.939 1.122.197.514.295 1.206.295 2.076 0 .86-.098 1.553-.295 2.076-.187.524-.5.903-.939 1.137-.44.224-1.029.336-1.768.336-.739 0-1.333-.112-1.782-.336-.439-.234-.757-.613-.954-1.137-.196-.523-.294-1.216-.294-2.076 0-.87.098-1.562.294-2.076.197-.524.515-.898.954-1.122.449-.234 1.043-.351 1.782-.351Zm0 .505c-.608 0-1.09.093-1.445.28-.355.187-.613.501-.772.94-.149.44-.224 1.048-.224 1.824 0 .767.075 1.375.224 1.824.159.449.417.767.772.954.355.187.837.28 1.445.28.599 0 1.075-.093 1.431-.28.355-.187.608-.505.757-.954.159-.449.239-1.057.239-1.824 0-.776-.08-1.384-.239-1.824-.149-.439-.402-.753-.757-.94-.356-.187-.832-.28-1.431-.28Zm10.402-3.872.14.421a6.906 6.906 0 0 1-.715.421 5.213 5.213 0 0 1-.66.252 7.447 7.447 0 0 1-.617.169c-.196.046-.393.098-.589.154-.599.168-1.057.393-1.375.673a2.412 2.412 0 0 0-.687 1.01c-.131.384-.22.828-.267 1.333a7.545 7.545 0 0 0-.042.491l-.028.463h.014c.056-.178.131-.365.224-.561.103-.197.253-.379.449-.547.197-.169.459-.3.786-.393.327-.103.739-.154 1.234-.154.664 0 1.188.107 1.572.322.383.215.659.571.827 1.066.169.487.253 1.137.253 1.95 0 .674-.075 1.268-.225 1.782-.14.505-.421.902-.841 1.192-.412.281-1.024.421-1.838.421-.543 0-.991-.065-1.347-.196a2.084 2.084 0 0 1-.856-.561 2.781 2.781 0 0 1-.477-.898 5.618 5.618 0 0 1-.196-1.193 23.495 23.495 0 0 1-.042-1.458c0-.767.028-1.436.084-2.007.066-.579.187-1.075.365-1.487.187-.411.458-.752.814-1.024.364-.271.841-.495 1.43-.673.234-.065.449-.122.646-.168.205-.047.407-.099.603-.155.206-.065.416-.145.631-.238.225-.103.468-.239.73-.407Zm-2.245 4.223c-.701 0-1.23.116-1.585.35a1.7 1.7 0 0 0-.715.982c-.122.412-.183.903-.183 1.473 0 .739.08 1.324.239 1.754.159.43.411.734.757.912.346.177.804.266 1.375.266.561 0 1.01-.089 1.347-.266.336-.178.575-.482.715-.912.15-.43.225-1.02.225-1.768 0-.701-.066-1.253-.197-1.655-.131-.402-.355-.692-.673-.87-.318-.178-.753-.266-1.305-.266Zm8.297-.856c.879 0 1.501.28 1.866.842.365.551.547 1.459.547 2.721 0 .86-.084 1.553-.252 2.076-.169.515-.435.889-.8 1.123-.365.224-.837.336-1.417.336-.458 0-.916-.061-1.375-.182a6.96 6.96 0 0 1-1.388-.575l.014-.379c.542.206 1.014.365 1.417.477.402.103.818.154 1.248.154.477 0 .86-.093 1.15-.28.29-.197.501-.515.632-.954.131-.449.196-1.048.196-1.796s-.065-1.347-.196-1.796c-.131-.448-.337-.771-.618-.968-.28-.196-.654-.294-1.122-.294-.43 0-.851.107-1.262.323-.412.205-.894.537-1.445.996l-.014-.449c.318-.3.631-.552.94-.758.308-.206.617-.36.925-.463a3.08 3.08 0 0 1 .954-.154Zm-2.875.168.084 1.277.042.084v4.615l-.056.169c.028.252.042.481.042.687.009.206.014.43.014.673v2.175h-.561v-9.68h.435Zm10.638-.168c.412 0 .767.065 1.067.196.299.131.523.342.673.632.159.28.238.659.238 1.136v4.966h-.42l-.113-1.487-.014-.098v-3.381c-.009-.43-.117-.781-.322-1.052-.206-.272-.599-.407-1.179-.407-.477 0-.991.023-1.543.07a37.33 37.33 0 0 0-1.571.14l-.056-.421a30 30 0 0 1 .954-.126c.337-.047.692-.084 1.066-.112.383-.037.79-.056 1.22-.056Zm1.628 2.82-.014.448-3.381.043c-.393.009-.688.112-.884.308-.196.197-.295.482-.295.856v.757c0 .421.113.739.337.954.225.206.552.314.982.323.337.009.702-.047 1.094-.168a5.363 5.363 0 0 0 1.151-.533c.374-.225.692-.473.954-.744v.491c-.122.15-.295.309-.519.477a7.327 7.327 0 0 1-.786.477c-.29.15-.603.276-.94.379-.327.093-.664.14-1.01.14-.374 0-.701-.065-.982-.196a1.513 1.513 0 0 1-.631-.604c-.14-.261-.211-.579-.211-.953v-.842c0-.515.145-.912.435-1.193.29-.28.706-.42 1.249-.42h3.451Zm5.204-2.652v6.762h-.575v-6.762h.575Zm2.638 0v.491h-5.85v-.491h5.85Zm2.225 0v6.762h-.562v-6.762h.562Zm4.489 2.932v.449h-4.574v-.449h4.574Zm.421-2.932v6.762h-.548v-6.762h.548Zm5.223-.168c.738 0 1.328.117 1.767.351.44.224.753.598.94 1.122.196.514.295 1.206.295 2.076 0 .86-.099 1.553-.295 2.076-.187.524-.5.903-.94 1.137-.439.224-1.029.336-1.767.336-.739 0-1.333-.112-1.782-.336-.44-.234-.758-.613-.954-1.137-.196-.523-.295-1.216-.295-2.076 0-.87.099-1.562.295-2.076.196-.524.514-.898.954-1.122.449-.234 1.043-.351 1.782-.351Zm0 .505c-.608 0-1.09.093-1.445.28-.356.187-.613.501-.772.94-.15.44-.224 1.048-.224 1.824 0 .767.074 1.375.224 1.824.159.449.416.767.772.954.355.187.837.28 1.445.28.598 0 1.075-.093 1.43-.28.356-.187.608-.505.758-.954.159-.449.238-1.057.238-1.824 0-.776-.079-1.384-.238-1.824-.15-.439-.402-.753-.758-.94-.355-.187-.832-.28-1.43-.28ZM81.272 131.578v9.68h-.576v-8.417c0-.112.005-.225.014-.337l.029-.351-2.554.842-.098-.407 2.61-1.01h.575Zm6.408-.168c.178 0 .425.009.743.028.318.009.65.061.996.154l-.112.421a3.825 3.825 0 0 0-.505-.07 8.196 8.196 0 0 0-.49-.014 12.643 12.643 0 0 0-.632-.014c-.57 0-1.052.065-1.445.196a1.724 1.724 0 0 0-.926.702c-.224.346-.388.855-.49 1.529-.104.664-.155 1.538-.155 2.623 0 .72.023 1.333.07 1.838.056.505.168.912.337 1.22.168.309.416.538.743.688.328.14.772.21 1.333.21.683 0 1.188-.103 1.515-.308.337-.206.556-.506.66-.898.102-.402.154-.884.154-1.445 0-.664-.061-1.197-.183-1.599-.121-.403-.341-.693-.66-.87-.308-.187-.752-.281-1.332-.281a3.57 3.57 0 0 0-.968.126c-.299.085-.598.234-.898.449-.299.215-.626.519-.982.912l-.056-.322c.309-.431.608-.763.898-.996.29-.234.603-.398.94-.491a4.04 4.04 0 0 1 1.178-.155c.674 0 1.198.103 1.572.309.383.206.654.547.813 1.024.16.477.239 1.122.239 1.936 0 .477-.033.912-.099 1.304a2.207 2.207 0 0 1-.406.982c-.197.262-.491.468-.884.618-.383.14-.888.21-1.515.21-.655 0-1.183-.079-1.585-.238a1.862 1.862 0 0 1-.926-.758c-.206-.355-.351-.818-.435-1.389a16.919 16.919 0 0 1-.112-2.118c0-1.197.065-2.16.196-2.89.14-.739.355-1.295.645-1.669.29-.374.66-.627 1.109-.758.458-.131 1.01-.196 1.655-.196Zm4.845 3.788c.085 0 .145.018.183.056.037.037.056.098.056.182v.842c0 .084-.019.145-.056.182-.038.037-.098.056-.183.056h-.196a.31.31 0 0 1-.196-.056c-.038-.037-.056-.098-.056-.182v-.842c0-.084.018-.145.056-.182a.303.303 0 0 1 .196-.056h.197Zm0 4.741c.085 0 .145.019.183.056.037.038.056.098.056.183v.841c0 .084-.019.145-.056.183-.038.037-.098.056-.183.056h-.196a.31.31 0 0 1-.196-.056c-.038-.038-.056-.099-.056-.183v-.841c0-.085.018-.145.056-.183a.31.31 0 0 1 .196-.056h.197Zm4.923-8.529c.72 0 1.29.07 1.711.21.42.131.725.36.912.688.196.318.295.762.295 1.332 0 .393-.047.763-.141 1.109a2.042 2.042 0 0 1-.463.855c-.215.234-.514.393-.897.477v.056c.663.103 1.122.379 1.374.828.253.44.384.973.393 1.599.009.646-.079 1.183-.266 1.614-.178.42-.487.734-.926.94-.43.205-1.015.308-1.754.308-.486 0-.977-.023-1.473-.07a33.386 33.386 0 0 1-1.445-.168l.084-.449.87.084c.3.028.603.051.912.07.318.009.636.014.954.014.59 0 1.061-.075 1.417-.224.355-.159.617-.412.785-.758.178-.355.267-.818.267-1.389 0-.383-.06-.739-.183-1.066a1.453 1.453 0 0 0-.659-.785c-.318-.206-.8-.309-1.445-.309l-1.795-.014v-.435l1.795-.028c.468-.009.837-.084 1.109-.225.27-.14.472-.317.603-.533.14-.215.229-.444.266-.687.038-.253.056-.496.056-.729-.009-.487-.093-.856-.252-1.109-.15-.252-.398-.43-.744-.533-.336-.103-.804-.154-1.403-.154-.439 0-.87.014-1.29.042-.421.028-.79.065-1.108.112l-.099-.435c.45-.075.875-.131 1.277-.168.412-.047.832-.07 1.263-.07Zm8.371 0c.776 0 1.389.178 1.838.533.458.355.781.902.968 1.641.196.739.294 1.684.294 2.834 0 1.141-.098 2.086-.294 2.834-.187.739-.51 1.286-.968 1.641-.449.355-1.062.533-1.838.533-.767 0-1.38-.178-1.838-.533-.449-.355-.771-.902-.968-1.641-.187-.748-.28-1.693-.28-2.834 0-1.15.093-2.095.28-2.834.197-.739.519-1.286.968-1.641.458-.355 1.071-.533 1.838-.533Zm0 .519c-.468 0-.865.089-1.193.266-.318.169-.575.44-.771.814-.197.365-.337.828-.421 1.389a13.881 13.881 0 0 0-.126 2.02c0 .776.042 1.45.126 2.02.084.561.224 1.029.421 1.403.196.365.453.636.771.814.328.168.725.252 1.193.252.477 0 .874-.084 1.192-.252.328-.178.589-.449.786-.814.196-.374.337-.842.421-1.403.084-.57.126-1.244.126-2.02 0-.786-.042-1.459-.126-2.02-.084-.561-.225-1.024-.421-1.389-.197-.374-.458-.645-.786-.814-.318-.177-.715-.266-1.192-.266ZM294.165 60.435v9.68h-.575v-8.418c0-.112.004-.224.014-.337.009-.121.018-.238.028-.35l-2.554.842-.098-.407 2.61-1.01h.575Zm7.951 0-.056.505h-4.265l-.154 3.437.842.014c.683.018 1.267.07 1.753.154.496.084.903.23 1.221.435.318.196.552.477.701.841.159.365.239.842.239 1.431 0 .374-.033.744-.098 1.109a2.428 2.428 0 0 1-.407.982c-.206.29-.51.519-.912.687-.393.168-.921.253-1.585.253a8.73 8.73 0 0 1-1.221-.099 10.26 10.26 0 0 1-1.417-.28l.099-.45c.43.094.865.174 1.304.24.44.055.818.084 1.136.084.721 0 1.258-.103 1.614-.31a1.57 1.57 0 0 0 .729-.883c.122-.383.187-.828.197-1.332 0-.552-.075-.987-.225-1.305a1.406 1.406 0 0 0-.729-.702c-.328-.15-.758-.243-1.291-.28-.524-.047-1.16-.08-1.908-.098h-.322a.373.373 0 0 1-.197-.085.269.269 0 0 1-.056-.21l.21-4.138h4.798Zm2.782 3.619c.084 0 .145.019.182.056.038.037.056.098.056.182v.842c0 .084-.018.145-.056.183-.037.037-.098.056-.182.056h-.196a.308.308 0 0 1-.197-.056c-.037-.038-.056-.099-.056-.183v-.842c0-.084.019-.145.056-.182a.308.308 0 0 1 .197-.056h.196Zm0 4.742c.084 0 .145.018.182.056.038.037.056.098.056.182v.842c0 .084-.018.145-.056.182-.037.038-.098.056-.182.056h-.196a.307.307 0 0 1-.197-.056c-.037-.037-.056-.098-.056-.182v-.842c0-.084.019-.145.056-.182a.308.308 0 0 1 .197-.056h.196Zm4.922-8.53c.72 0 1.291.07 1.712.21.42.132.724.36.911.688.197.318.295.762.295 1.333 0 .393-.047.762-.14 1.108a2.06 2.06 0 0 1-.463.856c-.215.234-.515.393-.898.477v.056c.664.103 1.122.379 1.375.828.252.44.383.972.393 1.599.009.645-.08 1.183-.267 1.613-.178.42-.486.734-.926.94-.43.206-1.015.309-1.753.309-.487 0-.978-.024-1.473-.07a32.165 32.165 0 0 1-1.445-.169l.084-.449.87.084c.299.028.603.052.911.07.318.01.636.014.954.014.59 0 1.062-.074 1.417-.224.356-.159.618-.411.786-.757.178-.356.266-.819.266-1.39 0-.383-.06-.738-.182-1.065a1.454 1.454 0 0 0-.659-.786c-.318-.206-.8-.309-1.445-.309l-1.796-.014v-.435l1.796-.028c.467-.009.837-.084 1.108-.224.271-.14.472-.318.603-.533.141-.215.229-.444.267-.688.037-.252.056-.495.056-.729-.009-.486-.094-.856-.253-1.108-.149-.253-.397-.43-.743-.533-.337-.103-.804-.155-1.403-.155-.44 0-.87.014-1.291.042-.42.029-.79.066-1.108.113l-.098-.435c.449-.075.874-.131 1.277-.169.411-.046.832-.07 1.262-.07Zm8.371 0c.777 0 1.389.178 1.838.533.458.356.781.903.968 1.642.196.738.295 1.683.295 2.833 0 1.141-.099 2.086-.295 2.834-.187.739-.51 1.286-.968 1.641-.449.356-1.061.534-1.838.534-.767 0-1.379-.178-1.837-.534-.449-.355-.772-.902-.968-1.64-.187-.749-.281-1.694-.281-2.835 0-1.15.094-2.095.281-2.833.196-.74.519-1.286.968-1.642.458-.355 1.07-.533 1.837-.533Zm0 .52c-.467 0-.865.088-1.192.266-.318.168-.575.44-.772.813-.196.365-.336.828-.42 1.39a13.735 13.735 0 0 0-.127 2.02c0 .776.042 1.449.127 2.02.084.56.224 1.028.42 1.402.197.365.454.636.772.814.327.168.725.252 1.192.252.477 0 .875-.084 1.193-.252.327-.178.589-.449.785-.814.197-.374.337-.841.421-1.403.084-.57.127-1.243.127-2.02 0-.785-.043-1.459-.127-2.02-.084-.56-.224-1.024-.421-1.389-.196-.374-.458-.645-.785-.813-.318-.178-.716-.267-1.193-.267ZM114.003 231.581v9.68h-.576v-8.417a4.2 4.2 0 0 1 .014-.337l.028-.351-2.553.842-.098-.407 2.609-1.01h.576Zm7.699 0c.168 0 .294.023.378.07a.261.261 0 0 1 .141.211.781.781 0 0 1-.042.364l-3.129 9.035h-.575l2.974-8.6c.037-.103.075-.201.112-.294.038-.094.07-.187.098-.281h-5.26l-.028-.505h5.331Zm2.719 3.619c.084 0 .145.019.182.057.038.037.056.098.056.182v.842c0 .084-.018.145-.056.182-.037.037-.098.056-.182.056h-.197a.309.309 0 0 1-.196-.056c-.037-.037-.056-.098-.056-.182v-.842c0-.084.019-.145.056-.182a.303.303 0 0 1 .196-.057h.197Zm0 4.742c.084 0 .145.019.182.056.038.038.056.098.056.183v.841c0 .084-.018.145-.056.183-.037.037-.098.056-.182.056h-.197a.309.309 0 0 1-.196-.056c-.037-.038-.056-.099-.056-.183v-.841c0-.085.019-.145.056-.183a.309.309 0 0 1 .196-.056h.197Zm5.539-8.529c.776 0 1.389.177 1.838.533.458.355.781.902.968 1.641.196.739.294 1.684.294 2.834 0 1.141-.098 2.085-.294 2.834-.187.739-.51 1.286-.968 1.641-.449.355-1.062.533-1.838.533-.767 0-1.379-.178-1.838-.533-.448-.355-.771-.902-.968-1.641-.187-.749-.28-1.693-.28-2.834 0-1.15.093-2.095.28-2.834.197-.739.52-1.286.968-1.641.459-.356 1.071-.533 1.838-.533Zm0 .519c-.467 0-.865.089-1.192.266-.318.169-.575.44-.772.814-.196.365-.337.828-.421 1.389a13.881 13.881 0 0 0-.126 2.02c0 .776.042 1.45.126 2.02.084.561.225 1.029.421 1.403.197.365.454.636.772.814.327.168.725.252 1.192.252.477 0 .875-.084 1.193-.252.327-.178.589-.449.785-.814.197-.374.337-.842.421-1.403.084-.57.126-1.244.126-2.02 0-.786-.042-1.459-.126-2.02-.084-.561-.224-1.024-.421-1.389-.196-.374-.458-.645-.785-.814-.318-.177-.716-.266-1.193-.266Zm8.261-.519c.776 0 1.389.177 1.838.533.458.355.781.902.968 1.641.196.739.294 1.684.294 2.834 0 1.141-.098 2.085-.294 2.834-.187.739-.51 1.286-.968 1.641-.449.355-1.062.533-1.838.533-.767 0-1.379-.178-1.838-.533-.449-.355-.771-.902-.968-1.641-.187-.749-.28-1.693-.28-2.834 0-1.15.093-2.095.28-2.834.197-.739.519-1.286.968-1.641.459-.356 1.071-.533 1.838-.533Zm0 .519c-.468 0-.865.089-1.192.266-.318.169-.576.44-.772.814-.196.365-.337.828-.421 1.389a13.881 13.881 0 0 0-.126 2.02c0 .776.042 1.45.126 2.02.084.561.225 1.029.421 1.403.196.365.454.636.772.814.327.168.724.252 1.192.252.477 0 .874-.084 1.192-.252.328-.178.59-.449.786-.814.196-.374.337-.842.421-1.403.084-.57.126-1.244.126-2.02 0-.786-.042-1.459-.126-2.02-.084-.561-.225-1.024-.421-1.389-.196-.374-.458-.645-.786-.814-.318-.177-.715-.266-1.192-.266ZM227.709 335.392v9.679h-.576v-8.417c0-.112.005-.224.014-.336l.028-.351-2.553.842-.098-.407 2.609-1.01h.576Zm6.001-.127c.599 0 1.085.052 1.459.155.383.103.683.257.898.463.224.205.379.467.463.785.084.318.126.697.126 1.137 0 .448-.047.832-.14 1.15-.094.318-.243.566-.449.743-.206.178-.472.286-.8.323v.056c.402.038.716.159.94.365.234.206.398.491.491.856.103.364.154.818.154 1.36 0 .599-.084 1.09-.252 1.473-.168.374-.482.646-.94.814-.449.168-1.099.253-1.95.253-.823 0-1.464-.085-1.922-.253-.458-.168-.776-.44-.954-.814-.177-.383-.266-.874-.266-1.473 0-.542.051-.996.154-1.36.103-.365.267-.65.491-.856.234-.206.547-.327.94-.365v-.056c-.327-.037-.594-.145-.8-.323-.205-.177-.355-.425-.449-.743a4.138 4.138 0 0 1-.14-1.15c0-.44.042-.819.126-1.137.094-.318.248-.58.463-.785.225-.206.529-.36.912-.463.384-.103.865-.155 1.445-.155Zm.028 5.023c-.533 0-.972.032-1.319.098-.336.056-.598.163-.785.322-.187.159-.318.393-.393.702-.075.299-.112.692-.112 1.178 0 .505.07.912.21 1.221.15.299.412.519.786.659.374.131.907.196 1.599.196.702 0 1.235-.065 1.599-.196.374-.14.627-.36.758-.659.14-.309.21-.716.21-1.221 0-.495-.037-.893-.112-1.192-.075-.309-.206-.543-.393-.702-.187-.159-.449-.266-.785-.322a7.742 7.742 0 0 0-1.263-.084Zm-.014-4.518c-.645 0-1.141.066-1.487.197-.346.131-.584.346-.715.645-.131.299-.197.706-.197 1.221 0 .561.066.982.197 1.262.131.281.369.472.715.575.355.094.856.141 1.501.141.664 0 1.165-.052 1.501-.155.337-.103.566-.294.688-.575.121-.28.182-.697.182-1.248 0-.515-.066-.922-.196-1.221-.122-.299-.356-.514-.702-.645-.337-.131-.832-.197-1.487-.197Zm5.855 3.241c.084 0 .145.019.182.056.038.038.056.098.056.182v.842c0 .084-.018.145-.056.183-.037.037-.098.056-.182.056h-.196a.31.31 0 0 1-.197-.056c-.037-.038-.056-.099-.056-.183v-.842c0-.084.019-.144.056-.182a.31.31 0 0 1 .197-.056h.196Zm0 4.742c.084 0 .145.018.182.056.038.037.056.098.056.182v.842c0 .084-.018.145-.056.182-.037.038-.098.056-.182.056h-.196a.304.304 0 0 1-.197-.056c-.037-.037-.056-.098-.056-.182v-.842c0-.084.019-.145.056-.182a.304.304 0 0 1 .197-.056h.196Zm5.539-8.53c.777 0 1.389.178 1.838.533.458.356.781.903.968 1.642.196.739.295 1.683.295 2.833 0 1.141-.099 2.086-.295 2.834-.187.739-.51 1.286-.968 1.642-.449.355-1.061.533-1.838.533-.767 0-1.379-.178-1.837-.533-.449-.356-.772-.903-.968-1.642-.187-.748-.281-1.693-.281-2.834 0-1.15.094-2.094.281-2.833.196-.739.519-1.286.968-1.642.458-.355 1.07-.533 1.837-.533Zm0 .519c-.467 0-.865.089-1.192.267-.318.168-.575.439-.772.814-.196.364-.336.827-.421 1.388a13.9 13.9 0 0 0-.126 2.02c0 .777.042 1.45.126 2.021.085.561.225 1.028.421 1.402.197.365.454.636.772.814.327.168.725.253 1.192.253.477 0 .875-.085 1.193-.253.327-.178.589-.449.785-.814.197-.374.337-.841.421-1.402.084-.571.126-1.244.126-2.021a13.9 13.9 0 0 0-.126-2.02c-.084-.561-.224-1.024-.421-1.388-.196-.375-.458-.646-.785-.814-.318-.178-.716-.267-1.193-.267Zm8.261-.519c.776 0 1.389.178 1.838.533.458.356.781.903.968 1.642.196.739.294 1.683.294 2.833 0 1.141-.098 2.086-.294 2.834-.187.739-.51 1.286-.968 1.642-.449.355-1.062.533-1.838.533-.767 0-1.379-.178-1.838-.533-.448-.356-.771-.903-.967-1.642-.188-.748-.281-1.693-.281-2.834 0-1.15.093-2.094.281-2.833.196-.739.519-1.286.967-1.642.459-.355 1.071-.533 1.838-.533Zm0 .519c-.467 0-.865.089-1.192.267-.318.168-.575.439-.772.814-.196.364-.336.827-.421 1.388a13.9 13.9 0 0 0-.126 2.02c0 .777.042 1.45.126 2.021.085.561.225 1.028.421 1.402.197.365.454.636.772.814.327.168.725.253 1.192.253.477 0 .875-.085 1.193-.253.327-.178.589-.449.785-.814.197-.374.337-.841.421-1.402.084-.571.126-1.244.126-2.021a13.9 13.9 0 0 0-.126-2.02c-.084-.561-.224-1.024-.421-1.388-.196-.375-.458-.646-.785-.814-.318-.178-.716-.267-1.193-.267ZM243.404 465.288c.598 0 1.113.051 1.543.154.43.094.757.281.982.561.224.281.336.702.336 1.263 0 .43-.07.837-.21 1.22a5.041 5.041 0 0 1-.617 1.193c-.271.402-.627.851-1.066 1.346l-3.129 3.592c.271-.01.543-.014.814-.014h4.615v.533h-6.158v-.351c0-.056.009-.103.028-.14.019-.047.042-.094.07-.141l3.227-3.703c.645-.73 1.112-1.375 1.402-1.936.3-.561.44-1.118.421-1.669-.018-.421-.121-.73-.308-.926-.187-.197-.445-.323-.772-.379a6.902 6.902 0 0 0-1.15-.084c-.29 0-.571.009-.842.028a7.05 7.05 0 0 0-.856.084c-.299.037-.65.098-1.052.182l-.084-.434a12.52 12.52 0 0 1 1.136-.239c.318-.056.608-.093.87-.112.262-.019.528-.028.8-.028Zm7.598 0c.72 0 1.29.07 1.711.21.421.131.725.36.912.688.196.318.295.762.295 1.332 0 .393-.047.762-.141 1.109a2.05 2.05 0 0 1-.463.855c-.215.234-.514.393-.897.477v.056c.664.103 1.122.379 1.374.828.253.44.384.973.393 1.599.01.646-.079 1.183-.266 1.614-.178.42-.487.734-.926.939-.43.206-1.015.309-1.754.309-.486 0-.977-.023-1.473-.07a33.593 33.593 0 0 1-1.445-.168l.084-.449.87.084c.299.028.603.051.912.07.318.009.636.014.954.014.589 0 1.061-.075 1.417-.224a1.55 1.55 0 0 0 .785-.758c.178-.355.267-.818.267-1.389 0-.383-.061-.739-.182-1.066a1.46 1.46 0 0 0-.66-.786c-.318-.205-.799-.308-1.445-.308l-1.795-.014v-.435l1.795-.028c.468-.009.837-.084 1.109-.225.271-.14.472-.318.603-.533.14-.215.229-.444.266-.687.038-.253.056-.496.056-.73-.009-.486-.093-.855-.252-1.108-.15-.252-.398-.43-.744-.533-.336-.103-.804-.154-1.402-.154-.44 0-.87.014-1.291.042-.421.028-.79.065-1.108.112l-.098-.435c.448-.075.874-.131 1.276-.168.412-.047.832-.07 1.263-.07Zm5.832 3.787c.084 0 .145.019.182.057.038.037.056.098.056.182v.842c0 .084-.018.145-.056.182-.037.037-.098.056-.182.056h-.197a.309.309 0 0 1-.196-.056c-.037-.037-.056-.098-.056-.182v-.842c0-.084.019-.145.056-.182a.303.303 0 0 1 .196-.057h.197Zm0 4.742c.084 0 .145.019.182.056.038.038.056.098.056.183v.841c0 .084-.018.145-.056.183-.037.037-.098.056-.182.056h-.197a.309.309 0 0 1-.196-.056c-.037-.038-.056-.099-.056-.183v-.841c0-.085.019-.145.056-.183a.309.309 0 0 1 .196-.056h.197Zm5.539-8.529c.776 0 1.389.177 1.838.533.458.355.781.902.968 1.641.196.739.294 1.684.294 2.834 0 1.141-.098 2.085-.294 2.834-.187.739-.51 1.286-.968 1.641-.449.355-1.062.533-1.838.533-.767 0-1.379-.178-1.838-.533-.448-.355-.771-.902-.968-1.641-.187-.749-.28-1.693-.28-2.834 0-1.15.093-2.095.28-2.834.197-.739.52-1.286.968-1.641.459-.356 1.071-.533 1.838-.533Zm0 .519c-.467 0-.865.089-1.192.266-.318.169-.575.44-.772.814-.196.365-.336.828-.421 1.389a13.881 13.881 0 0 0-.126 2.02c0 .776.042 1.45.126 2.02.085.561.225 1.029.421 1.403.197.365.454.636.772.814.327.168.725.252 1.192.252.477 0 .875-.084 1.193-.252.327-.178.589-.449.785-.814.197-.374.337-.842.421-1.403.084-.57.126-1.244.126-2.02 0-.786-.042-1.459-.126-2.02-.084-.561-.224-1.024-.421-1.389-.196-.374-.458-.645-.785-.814-.318-.177-.716-.266-1.193-.266Zm8.261-.519c.776 0 1.389.177 1.838.533.458.355.781.902.968 1.641.196.739.294 1.684.294 2.834 0 1.141-.098 2.085-.294 2.834-.187.739-.51 1.286-.968 1.641-.449.355-1.062.533-1.838.533-.767 0-1.379-.178-1.838-.533-.449-.355-.771-.902-.968-1.641-.187-.749-.28-1.693-.28-2.834 0-1.15.093-2.095.28-2.834.197-.739.519-1.286.968-1.641.459-.356 1.071-.533 1.838-.533Zm0 .519c-.468 0-.865.089-1.192.266-.318.169-.576.44-.772.814-.196.365-.337.828-.421 1.389a13.881 13.881 0 0 0-.126 2.02c0 .776.042 1.45.126 2.02.084.561.225 1.029.421 1.403.196.365.454.636.772.814.327.168.724.252 1.192.252.477 0 .875-.084 1.193-.252.327-.178.589-.449.785-.814.196-.374.337-.842.421-1.403.084-.57.126-1.244.126-2.02 0-.786-.042-1.459-.126-2.02-.084-.561-.225-1.024-.421-1.389-.196-.374-.458-.645-.785-.814-.318-.177-.716-.266-1.193-.266ZM165.516 519.397c.599 0 1.113.052 1.543.154.431.094.758.281.982.562.225.28.337.701.337 1.262 0 .43-.07.837-.21 1.221a5.005 5.005 0 0 1-.618 1.192c-.271.402-.626.851-1.066 1.347l-3.128 3.591c.271-.009.542-.014.814-.014h4.615v.533h-6.159v-.351c0-.056.01-.102.028-.14.019-.047.043-.093.071-.14l3.226-3.704c.645-.729 1.113-1.374 1.403-1.936.299-.561.44-1.117.421-1.669-.019-.421-.122-.729-.309-.926-.187-.196-.444-.323-.771-.379a6.915 6.915 0 0 0-1.151-.084c-.29 0-.57.01-.841.028a7.43 7.43 0 0 0-.856.084c-.299.038-.65.099-1.052.183l-.084-.435c.448-.112.827-.192 1.136-.239.318-.056.608-.093.87-.112.261-.019.528-.028.799-.028Zm8.496.168-3.058 5.878c-.094.178-.098.332-.014.463a.468.468 0 0 0 .407.197h5.948v.421l-1.347.07h-4.84a.817.817 0 0 1-.533-.183.8.8 0 0 1-.266-.463.846.846 0 0 1 .084-.561l3.03-5.822h.589Zm2.104 1.838v7.842h-.561v-6.214l.127-1.628h.434Zm3.488 1.782c.084 0 .145.019.182.056.038.037.056.098.056.182v.842c0 .084-.018.145-.056.182-.037.038-.098.056-.182.056h-.196a.304.304 0 0 1-.197-.056c-.037-.037-.056-.098-.056-.182v-.842c0-.084.019-.145.056-.182a.31.31 0 0 1 .197-.056h.196Zm0 4.741c.084 0 .145.019.182.057.038.037.056.098.056.182v.842c0 .084-.018.145-.056.182-.037.037-.098.056-.182.056h-.196a.31.31 0 0 1-.197-.056c-.037-.037-.056-.098-.056-.182v-.842c0-.084.019-.145.056-.182a.304.304 0 0 1 .197-.057h.196Zm5.539-8.529c.777 0 1.389.178 1.838.533.458.356.781.903.968 1.642.196.738.295 1.683.295 2.833 0 1.141-.099 2.086-.295 2.834-.187.739-.51 1.286-.968 1.641-.449.356-1.061.533-1.838.533-.767 0-1.379-.177-1.837-.533-.449-.355-.772-.902-.968-1.641-.187-.748-.281-1.693-.281-2.834 0-1.15.094-2.095.281-2.833.196-.739.519-1.286.968-1.642.458-.355 1.07-.533 1.837-.533Zm0 .519c-.467 0-.865.089-1.192.267-.318.168-.575.439-.772.813-.196.365-.336.828-.42 1.389a13.737 13.737 0 0 0-.127 2.02c0 .777.042 1.45.127 2.02.084.562.224 1.029.42 1.403.197.365.454.636.772.814.327.168.725.252 1.192.252.477 0 .875-.084 1.193-.252.327-.178.589-.449.785-.814.197-.374.337-.841.421-1.403.084-.57.127-1.243.127-2.02 0-.785-.043-1.459-.127-2.02-.084-.561-.224-1.024-.421-1.389-.196-.374-.458-.645-.785-.813-.318-.178-.716-.267-1.193-.267Zm8.261-.519c.777 0 1.389.178 1.838.533.458.356.781.903.968 1.642.196.738.295 1.683.295 2.833 0 1.141-.099 2.086-.295 2.834-.187.739-.51 1.286-.968 1.641-.449.356-1.061.533-1.838.533-.767 0-1.379-.177-1.837-.533-.449-.355-.772-.902-.968-1.641-.187-.748-.281-1.693-.281-2.834 0-1.15.094-2.095.281-2.833.196-.739.519-1.286.968-1.642.458-.355 1.07-.533 1.837-.533Zm0 .519c-.467 0-.865.089-1.192.267-.318.168-.575.439-.772.813-.196.365-.336.828-.421 1.389a13.891 13.891 0 0 0-.126 2.02c0 .777.042 1.45.126 2.02.085.562.225 1.029.421 1.403.197.365.454.636.772.814.327.168.725.252 1.192.252.477 0 .875-.084 1.193-.252.327-.178.589-.449.785-.814.197-.374.337-.841.421-1.403.084-.57.126-1.243.126-2.02 0-.785-.042-1.459-.126-2.02-.084-.561-.224-1.024-.421-1.389-.196-.374-.458-.645-.785-.813-.318-.178-.716-.267-1.193-.267Z"/><path stroke="#A9B8B0" stroke-linecap="round" stroke-opacity=".99" stroke-width="2.605" d="M0 31.264C53.17 57.32 162.019 61.409 223.912 85.199c36.403 13.993 106.101 50.156 85.31 79.961-30.508 36.169-117.835 15.001-104.545-6.167 11.313-18.018 65.22-16.349 103.672-5.213 28.224 10.661 41.678 29.288 40.022 47.549-3.98 43.888-102.517 69.625-165.61 88.26-67.466 19.926-171.729 63.272-138.381 111.279 23.24 33.456 96.078 42.394 159.894 41.84 90.527-.786 50.106-53.483-49.033 1.175C88.854 480.484 39.556 520.172 0 566.55"/><circle cx="220.748" cy="84.271" r="7.515" fill="#EF692B" fill-opacity=".57"/><circle cx="316.543" cy="238.785" r="7.515" fill="#EF692B" fill-opacity=".57"/><circle cx="50.002" cy="355.22" r="7.515" fill="#EF692B" fill-opacity=".57"/><circle cx="55.011" cy="511.137" r="7.515" fill="#EF692B" fill-opacity=".57"/></svg>