<svg width="350" height="97" viewBox="0 0 350 97" fill="none" xmlns="http://www.w3.org/2000/svg">
<path d="M145.968 7.44C146.08 7.44 146.168 7.464 146.232 7.512C146.312 7.56 146.368 7.64 146.4 7.752L152.184 24H151.152L146.112 9.6C146.032 9.376 145.952 9.152 145.872 8.928C145.792 8.704 145.712 8.48 145.632 8.256H144.96C144.88 8.48 144.8 8.704 144.72 8.928C144.64 9.152 144.56 9.376 144.48 9.6L139.44 24H138.408L144.192 7.752C144.224 7.64 144.28 7.56 144.36 7.512C144.44 7.464 144.528 7.44 144.624 7.44H145.968ZM149.472 17.304V18.168H141.072V17.304H149.472ZM159.034 12.312C160.218 12.312 161.154 12.4 161.842 12.576C162.546 12.752 163.05 13.064 163.354 13.512C163.658 13.944 163.81 14.576 163.81 15.408C163.81 16.224 163.61 16.848 163.21 17.28C162.826 17.696 162.194 17.944 161.314 18.024V18.072C162.402 18.152 163.154 18.456 163.57 18.984C164.002 19.496 164.218 20.216 164.218 21.144C164.218 21.928 164.066 22.536 163.762 22.968C163.474 23.4 163.002 23.704 162.346 23.88C161.69 24.056 160.802 24.144 159.682 24.144C158.93 24.144 158.282 24.136 157.738 24.12C157.194 24.12 156.69 24.104 156.226 24.072C155.778 24.056 155.29 24.032 154.762 24L155.05 23.304C155.354 23.32 155.914 23.336 156.73 23.352C157.546 23.352 158.498 23.352 159.586 23.352C160.482 23.352 161.194 23.288 161.722 23.16C162.266 23.032 162.658 22.8 162.898 22.464C163.138 22.128 163.258 21.64 163.258 21C163.258 20.008 162.97 19.328 162.394 18.96C161.834 18.592 160.842 18.408 159.418 18.408H155.026V17.688H159.418C160.266 17.672 160.938 17.608 161.434 17.496C161.946 17.368 162.314 17.144 162.538 16.824C162.762 16.504 162.874 16.048 162.874 15.456C162.874 14.816 162.746 14.336 162.49 14.016C162.25 13.68 161.842 13.448 161.266 13.32C160.706 13.192 159.954 13.128 159.01 13.128C158.386 13.112 157.81 13.112 157.282 13.128C156.77 13.128 156.322 13.136 155.938 13.152C155.554 13.152 155.258 13.16 155.05 13.176L154.762 12.456C155.226 12.408 155.65 12.376 156.034 12.36C156.434 12.344 156.874 12.336 157.354 12.336C157.834 12.32 158.394 12.312 159.034 12.312ZM155.674 12.456V24H154.762V12.456H155.674ZM170.189 12.432C171.133 12.432 172.061 12.44 172.973 12.456C173.901 12.456 174.829 12.48 175.757 12.528L175.733 13.248H170.501C169.941 13.248 169.525 13.384 169.253 13.656C168.981 13.928 168.845 14.36 168.845 14.952V24H167.885V14.76C167.885 14.024 168.085 13.456 168.485 13.056C168.901 12.64 169.469 12.432 170.189 12.432ZM188.102 12.432L182.966 25.008C182.838 25.344 182.67 25.712 182.462 26.112C182.27 26.512 182.046 26.896 181.79 27.264C181.534 27.632 181.238 27.952 180.902 28.224C180.406 28.56 179.862 28.784 179.27 28.896C178.694 29.008 178.094 29.016 177.47 28.92L177.542 28.296C178.022 28.312 178.51 28.272 179.006 28.176C179.502 28.096 179.958 27.904 180.374 27.6C180.742 27.264 181.07 26.848 181.358 26.352C181.646 25.856 181.894 25.344 182.102 24.816L182.582 23.616C182.694 23.344 182.806 23.056 182.918 22.752C183.046 22.432 183.166 22.144 183.278 21.888L187.07 12.432H188.102ZM178.118 12.432L181.934 21.912C182.014 22.136 182.094 22.352 182.174 22.56C182.27 22.768 182.358 22.984 182.438 23.208H182.918L182.558 24H182.126C182.03 24 181.942 23.976 181.862 23.928C181.798 23.88 181.742 23.808 181.694 23.712L177.086 12.432H178.118ZM195.537 12.144C195.841 12.144 196.185 12.16 196.569 12.192C196.969 12.208 197.369 12.248 197.769 12.312C198.185 12.376 198.561 12.472 198.897 12.6L198.729 13.248C198.281 13.152 197.761 13.088 197.169 13.056C196.577 13.024 196.081 13.008 195.681 13.008C194.593 13.008 193.721 13.168 193.065 13.488C192.409 13.792 191.929 14.32 191.625 15.072C191.337 15.824 191.193 16.872 191.193 18.216C191.193 19.56 191.337 20.616 191.625 21.384C191.929 22.136 192.409 22.664 193.065 22.968C193.721 23.272 194.593 23.424 195.681 23.424C195.921 23.424 196.233 23.416 196.617 23.4C197.001 23.384 197.409 23.36 197.841 23.328C198.273 23.28 198.673 23.224 199.041 23.16L199.161 23.832C198.617 23.96 198.025 24.064 197.385 24.144C196.761 24.24 196.145 24.288 195.537 24.288C194.241 24.288 193.201 24.096 192.417 23.712C191.633 23.312 191.065 22.664 190.713 21.768C190.377 20.872 190.209 19.688 190.209 18.216C190.209 16.728 190.377 15.544 190.713 14.664C191.065 13.768 191.633 13.128 192.417 12.744C193.201 12.344 194.241 12.144 195.537 12.144ZM206.395 12.432V24H205.411V12.432H206.395ZM210.907 12.432V13.272H200.899V12.432H210.907Z" fill="black"/>
<path d="M2.29613 42.5437V53.8604H1.6237V42.5437H2.29613ZM8.75811 42.5437V43.1177H2.16493V42.5437H8.75811ZM9.25014 42.5437V53.8604H8.5777V42.5437H9.25014ZM13.1714 42.5437V53.8604H12.4989V42.5437H13.1714ZM19.5842 47.4968V48.0872H13.0402V47.4968H19.5842ZM20.0762 42.5437V53.8604H19.4037V42.5437H20.0762Z" fill="black"/>
<path d="M61.8468 42.4125C62.7434 42.4125 63.4596 42.5 63.9954 42.6749C64.5311 42.8389 64.9193 43.1341 65.1598 43.5605C65.4004 43.987 65.5207 44.5883 65.5207 45.3647C65.5207 46.1738 65.3676 46.7915 65.0614 47.218C64.7662 47.6444 64.2797 47.8904 63.6017 47.956V48.0216C64.4437 48.0981 65.0286 48.3934 65.3567 48.9073C65.6847 49.4212 65.8487 50.1319 65.8487 51.0394C65.8487 51.8157 65.7339 52.4171 65.5043 52.8435C65.2746 53.2699 64.9029 53.5706 64.389 53.7455C63.8751 53.9096 63.1917 53.9916 62.3389 53.9916C61.7484 53.9916 61.24 53.9861 60.8136 53.9752C60.3981 53.9752 60.0154 53.9642 59.6655 53.9424C59.3156 53.9205 58.9384 53.8932 58.5339 53.8604L58.7635 53.3519C58.9931 53.3629 59.425 53.3738 60.0591 53.3847C60.6933 53.3957 61.4314 53.4011 62.2733 53.4011C62.9949 53.4011 63.5635 53.3355 63.979 53.2043C64.3945 53.0731 64.6951 52.8326 64.881 52.4827C65.0669 52.1328 65.1598 51.6298 65.1598 50.9738C65.1598 50.2631 65.0614 49.7164 64.8646 49.3337C64.6678 48.9401 64.3453 48.6667 63.897 48.5136C63.4596 48.3606 62.8692 48.2786 62.1257 48.2676H58.7471V47.7264H62.1257C62.7926 47.7155 63.3229 47.6499 63.7166 47.5296C64.1211 47.3984 64.4054 47.1688 64.5694 46.8407C64.7443 46.5018 64.8318 46.0262 64.8318 45.4139C64.8318 44.7578 64.7334 44.2603 64.5366 43.9214C64.3507 43.5715 64.0336 43.3309 63.5853 43.1997C63.148 43.0685 62.563 43.0029 61.8304 43.0029C61.3275 43.0029 60.8737 43.0084 60.4692 43.0193C60.0646 43.0193 59.7147 43.0248 59.4195 43.0357C59.1352 43.0357 58.9165 43.0412 58.7635 43.0521L58.5339 42.5437C58.8837 42.5 59.2118 42.4726 59.5179 42.4617C59.8241 42.4398 60.1575 42.4289 60.5184 42.4289C60.8901 42.4179 61.3329 42.4125 61.8468 42.4125ZM59.2063 42.5437V53.8604H58.5339V42.5437H59.2063ZM71.6501 42.5437V53.8604H70.9777V42.5437H71.6501ZM75.5536 42.5437V43.1341H67.0907V42.5437H75.5536Z" fill="black"/>
<path d="M117.249 42.3469C117.708 42.3469 118.096 42.3578 118.413 42.3797C118.742 42.4015 119.042 42.4343 119.316 42.4781C119.589 42.5218 119.873 42.5765 120.168 42.6421L120.054 43.1341C119.747 43.0904 119.458 43.0576 119.184 43.0357C118.922 43.0029 118.638 42.981 118.331 42.9701C118.025 42.9592 117.665 42.9537 117.249 42.9537C116.374 42.9537 115.68 43.1232 115.166 43.4621C114.652 43.7902 114.28 44.3369 114.051 45.1022C113.821 45.8676 113.706 46.9009 113.706 48.202C113.706 49.5032 113.821 50.5364 114.051 51.3018C114.28 52.0672 114.652 52.6193 115.166 52.9583C115.68 53.2863 116.374 53.4503 117.249 53.4503C117.916 53.4503 118.479 53.4339 118.938 53.4011C119.398 53.3683 119.846 53.3137 120.283 53.2371L120.398 53.7455C119.95 53.8549 119.49 53.9314 119.02 53.9752C118.55 54.0298 117.96 54.0572 117.249 54.0572C116.21 54.0572 115.379 53.8713 114.756 53.4995C114.133 53.1168 113.685 52.4991 113.411 51.6462C113.138 50.7934 113.001 49.6453 113.001 48.202C113.001 46.7587 113.138 45.6107 113.411 44.7578C113.685 43.905 114.133 43.2927 114.756 42.9209C115.379 42.5382 116.21 42.3469 117.249 42.3469ZM126.376 42.4125C127.207 42.4125 127.863 42.5109 128.344 42.7077C128.836 42.9045 129.191 43.2489 129.41 43.741C129.629 44.233 129.738 44.9164 129.738 45.7911C129.738 46.6767 129.629 47.3656 129.41 47.8576C129.202 48.3496 128.852 48.694 128.36 48.8909C127.879 49.0767 127.229 49.1697 126.409 49.1697C125.971 49.1697 125.556 49.1697 125.162 49.1697C124.779 49.1587 124.43 49.1423 124.112 49.1205C123.795 49.0986 123.527 49.0822 123.309 49.0713C123.09 49.0603 122.937 49.0439 122.85 49.0221L122.899 48.5792C123.445 48.5792 124.014 48.5792 124.604 48.5792C125.206 48.5792 125.796 48.5792 126.376 48.5792C127.032 48.5683 127.551 48.4863 127.934 48.3332C128.327 48.1802 128.612 47.9013 128.787 47.4968C128.962 47.0922 129.049 46.5237 129.049 45.7911C129.049 45.0476 128.962 44.479 128.787 44.0854C128.612 43.6808 128.327 43.402 127.934 43.2489C127.551 43.0849 127.032 43.0029 126.376 43.0029C125.523 43.0029 124.785 43.0084 124.162 43.0193C123.549 43.0303 123.134 43.0467 122.915 43.0685L122.686 42.5437C123.079 42.5 123.445 42.4726 123.784 42.4617C124.134 42.4398 124.512 42.4289 124.916 42.4289C125.321 42.4179 125.807 42.4125 126.376 42.4125ZM123.358 42.5437V53.8604H122.686V42.5437H123.358Z" fill="black"/>
<path d="M167.52 42.5437V47.0048C167.52 47.6608 167.668 48.1474 167.963 48.4644C168.258 48.7706 168.728 48.9237 169.373 48.9237C169.887 48.9237 170.357 48.8799 170.784 48.7925C171.221 48.705 171.664 48.5628 172.112 48.366C172.572 48.1692 173.08 47.9068 173.638 47.5788L173.654 48.12C173.129 48.459 172.61 48.7378 172.096 48.9565C171.593 49.1642 171.101 49.3118 170.62 49.3993C170.139 49.4868 169.658 49.5305 169.177 49.5305C168.389 49.5305 167.804 49.3337 167.422 48.9401C167.039 48.5355 166.848 47.9287 166.848 47.1196V42.5437H167.52ZM174.113 42.5437V53.8604H173.441V42.5437H174.113ZM180.729 42.5437V53.8604H180.056V42.5437H180.729ZM184.632 42.5437V43.1341H176.169V42.5437H184.632Z" fill="black"/>
<path d="M222.939 42.5437V53.8604H222.266V42.5437H222.939ZM229.401 42.5437V43.1177H222.808V42.5437H229.401ZM229.893 42.5437V53.8604H229.22V42.5437H229.893ZM236.504 42.5437V53.8604H235.831V42.5437H236.504ZM240.407 42.5437V43.1341H231.944V42.5437H240.407Z" fill="black"/>
<path d="M281.981 42.3469C282.441 42.3469 282.829 42.3578 283.146 42.3797C283.474 42.4015 283.775 42.4343 284.048 42.4781C284.321 42.5218 284.606 42.5765 284.901 42.6421L284.786 43.1341C284.48 43.0904 284.19 43.0576 283.917 43.0357C283.654 43.0029 283.37 42.981 283.064 42.9701C282.758 42.9592 282.397 42.9537 281.981 42.9537C281.107 42.9537 280.412 43.1232 279.899 43.4621C279.385 43.7902 279.013 44.3369 278.783 45.1022C278.554 45.8676 278.439 46.9009 278.439 48.202C278.439 49.5032 278.554 50.5364 278.783 51.3018C279.013 52.0672 279.385 52.6193 279.899 52.9583C280.412 53.2863 281.107 53.4503 281.981 53.4503C282.648 53.4503 283.212 53.4339 283.671 53.4011C284.13 53.3683 284.578 53.3137 285.016 53.2371L285.13 53.7455C284.682 53.8549 284.223 53.9314 283.753 53.9752C283.283 54.0298 282.692 54.0572 281.981 54.0572C280.943 54.0572 280.112 53.8713 279.489 53.4995C278.865 53.1168 278.417 52.4991 278.144 51.6462C277.87 50.7934 277.734 49.6453 277.734 48.202C277.734 46.7587 277.87 45.6107 278.144 44.7578C278.417 43.905 278.865 43.2927 279.489 42.9209C280.112 42.5382 280.943 42.3469 281.981 42.3469ZM293.995 42.5437L293.929 43.1013H288.09V53.8604H287.418V42.5437C287.976 42.5218 288.533 42.5054 289.091 42.4945C289.649 42.4726 290.201 42.4617 290.747 42.4617C291.294 42.4617 291.835 42.4726 292.371 42.4945C292.907 42.5054 293.448 42.5218 293.995 42.5437ZM291.075 47.6936C291.961 47.6936 292.655 47.7975 293.158 48.0052C293.672 48.213 294.033 48.5464 294.241 49.0057C294.449 49.4649 294.552 50.0827 294.552 50.859C294.552 51.5041 294.481 52.0344 294.339 52.4499C294.208 52.8544 294 53.1715 293.716 53.4011C293.432 53.6198 293.065 53.7729 292.617 53.8604C292.169 53.9478 291.633 53.9916 291.01 53.9916C290.485 53.9916 290.026 53.9861 289.632 53.9752C289.249 53.9752 288.883 53.9642 288.533 53.9424C288.194 53.9205 287.823 53.8932 287.418 53.8604L287.648 53.3519C287.888 53.3629 288.304 53.3738 288.894 53.3847C289.495 53.3957 290.223 53.4011 291.075 53.4011C291.753 53.4011 292.295 53.3355 292.699 53.2043C293.115 53.0622 293.41 52.8107 293.585 52.4499C293.771 52.0781 293.864 51.5423 293.864 50.8426C293.864 50.1975 293.782 49.689 293.618 49.3173C293.454 48.9455 293.169 48.6776 292.765 48.5136C292.36 48.3496 291.797 48.2676 291.075 48.2676H287.631V47.6936H291.075Z" fill="black"/>
<path d="M335.4 42.4125C336.296 42.4125 337.012 42.5 337.548 42.6749C338.084 42.8389 338.472 43.1341 338.713 43.5605C338.953 43.987 339.073 44.5883 339.073 45.3647C339.073 46.1738 338.92 46.7915 338.614 47.218C338.319 47.6444 337.832 47.8904 337.154 47.956V48.0216C337.996 48.0981 338.581 48.3934 338.909 48.9073C339.237 49.4212 339.401 50.1319 339.401 51.0394C339.401 51.8157 339.287 52.4171 339.057 52.8435C338.827 53.2699 338.456 53.5706 337.942 53.7455C337.428 53.9096 336.744 53.9916 335.892 53.9916C335.301 53.9916 334.793 53.9861 334.366 53.9752C333.951 53.9752 333.568 53.9642 333.218 53.9424C332.868 53.9205 332.491 53.8932 332.087 53.8604L332.316 53.3519C332.546 53.3629 332.978 53.3738 333.612 53.3847C334.246 53.3957 334.984 53.4011 335.826 53.4011C336.548 53.4011 337.116 53.3355 337.532 53.2043C337.947 53.0731 338.248 52.8326 338.434 52.4827C338.62 52.1328 338.713 51.6298 338.713 50.9738C338.713 50.2631 338.614 49.7164 338.417 49.3337C338.221 48.9401 337.898 48.6667 337.45 48.5136C337.012 48.3606 336.422 48.2786 335.678 48.2676H332.3V47.7264H335.678C336.345 47.7155 336.876 47.6499 337.269 47.5296C337.674 47.3984 337.958 47.1688 338.122 46.8407C338.297 46.5018 338.385 46.0262 338.385 45.4139C338.385 44.7578 338.286 44.2603 338.089 43.9214C337.903 43.5715 337.586 43.3309 337.138 43.1997C336.701 43.0685 336.116 43.0029 335.383 43.0029C334.88 43.0029 334.426 43.0084 334.022 43.0193C333.617 43.0193 333.267 43.0248 332.972 43.0357C332.688 43.0357 332.469 43.0412 332.316 43.0521L332.087 42.5437C332.436 42.5 332.764 42.4726 333.071 42.4617C333.377 42.4398 333.71 42.4289 334.071 42.4289C334.443 42.4179 334.886 42.4125 335.4 42.4125ZM332.759 42.5437V53.8604H332.087V42.5437H332.759ZM345.966 42.3469C346.425 42.3469 346.813 42.3578 347.13 42.3797C347.459 42.4015 347.759 42.4343 348.033 42.4781C348.306 42.5218 348.59 42.5765 348.885 42.6421L348.771 43.1341C348.464 43.0904 348.175 43.0576 347.901 43.0357C347.639 43.0029 347.355 42.981 347.048 42.9701C346.742 42.9592 346.382 42.9537 345.966 42.9537C345.091 42.9537 344.397 43.1232 343.883 43.4621C343.369 43.7902 342.997 44.3369 342.768 45.1022C342.538 45.8676 342.423 46.9009 342.423 48.202C342.423 49.5032 342.538 50.5364 342.768 51.3018C342.997 52.0672 343.369 52.6193 343.883 52.9583C344.397 53.2863 345.091 53.4503 345.966 53.4503C346.633 53.4503 347.196 53.4339 347.655 53.4011C348.115 53.3683 348.563 53.3137 349 53.2371L349.115 53.7455C348.667 53.8549 348.207 53.9314 347.737 53.9752C347.267 54.0298 346.677 54.0572 345.966 54.0572C344.927 54.0572 344.096 53.8713 343.473 53.4995C342.85 53.1168 342.402 52.4991 342.128 51.6462C341.855 50.7934 341.718 49.6453 341.718 48.202C341.718 46.7587 341.855 45.6107 342.128 44.7578C342.402 43.905 342.85 43.2927 343.473 42.9209C344.096 42.5382 344.927 42.3469 345.966 42.3469Z" fill="black"/>
<path d="M7.07675 73.6306V84.9473H6.40431V75.1067C6.40431 74.9755 6.40978 74.8443 6.42071 74.7131C6.43165 74.5709 6.44258 74.4343 6.45351 74.303L3.46854 75.2871L3.35373 74.8115L6.40431 73.6306H7.07675ZM13.3552 73.6306V84.9473H12.6828V75.1067C12.6828 74.9755 12.6883 74.8443 12.6992 74.7131C12.7101 74.5709 12.7211 74.4343 12.732 74.303L9.74703 75.2871L9.63222 74.8115L12.6828 73.6306H13.3552Z" fill="black"/>
<path d="M62.6158 73.6306V84.9473H61.9434V75.1067C61.9434 74.9755 61.9488 74.8443 61.9598 74.7131C61.9707 74.5709 61.9816 74.4343 61.9926 74.303L59.0076 75.2871L58.8928 74.8115L61.9434 73.6306H62.6158ZM68.9927 73.4338C69.6925 73.4338 70.2939 73.4939 70.7968 73.6142C71.2998 73.7235 71.6825 73.9422 71.9449 74.2702C72.2073 74.5983 72.3385 75.0903 72.3385 75.7463C72.3385 76.2493 72.2565 76.7249 72.0925 77.1732C71.9394 77.6215 71.6989 78.0862 71.3708 78.5673C71.0538 79.0375 70.6383 79.5623 70.1244 80.1418L66.467 84.3404C66.784 84.3295 67.1011 84.324 67.4182 84.324C67.7462 84.324 68.0688 84.324 68.3859 84.324H72.8141V84.9473H65.6141V84.5372C65.6141 84.4716 65.625 84.417 65.6469 84.3732C65.6688 84.3186 65.6961 84.2639 65.7289 84.2092L69.5011 79.8794C70.2556 79.0265 70.8023 78.2721 71.1412 77.616C71.4911 76.96 71.6551 76.3094 71.6333 75.6643C71.6114 75.1723 71.4911 74.8115 71.2724 74.5819C71.0538 74.3522 70.7531 74.2046 70.3704 74.139C69.9877 74.0734 69.5394 74.0406 69.0255 74.0406C68.6866 74.0406 68.3585 74.0516 68.0415 74.0734C67.7244 74.0844 67.3909 74.1172 67.041 74.1718C66.6911 74.2156 66.2811 74.2866 65.8109 74.385L65.7125 73.8766C66.2373 73.7454 66.6802 73.6525 67.041 73.5978C67.4128 73.5322 67.7517 73.4885 68.0579 73.4666C68.364 73.4447 68.6756 73.4338 68.9927 73.4338Z" fill="black"/>
<path d="M115.108 73.6306V84.9473H114.436V75.1067C114.436 74.9755 114.441 74.8443 114.452 74.7131C114.463 74.5709 114.474 74.4343 114.485 74.303L111.5 75.2871L111.385 74.8115L114.436 73.6306H115.108ZM121.222 73.4338C122.064 73.4338 122.731 73.5158 123.223 73.6798C123.715 73.8329 124.071 74.1008 124.289 74.4835C124.519 74.8552 124.634 75.3746 124.634 76.0415C124.634 76.5008 124.579 76.9327 124.47 77.3372C124.361 77.7308 124.18 78.0643 123.929 78.3377C123.677 78.611 123.327 78.7969 122.879 78.8953V78.9609C123.655 79.0812 124.191 79.4037 124.486 79.9286C124.781 80.4425 124.935 81.0657 124.945 81.7983C124.956 82.5527 124.853 83.1814 124.634 83.6844C124.426 84.1764 124.065 84.5427 123.551 84.7833C123.048 85.0238 122.365 85.1441 121.501 85.1441C120.933 85.1441 120.359 85.1167 119.779 85.0621C119.2 85.0074 118.637 84.9418 118.09 84.8653L118.188 84.3404C118.516 84.3732 118.855 84.406 119.205 84.4388C119.555 84.4716 119.91 84.499 120.271 84.5208C120.643 84.5318 121.015 84.5372 121.386 84.5372C122.075 84.5372 122.627 84.4498 123.043 84.2748C123.458 84.0889 123.765 83.7937 123.961 83.3892C124.169 82.9737 124.273 82.4325 124.273 81.7655C124.273 81.3172 124.202 80.9017 124.06 80.519C123.929 80.1363 123.672 79.8302 123.289 79.6006C122.917 79.36 122.354 79.2397 121.6 79.2397L119.5 79.2233V78.7149L121.6 78.6821C122.146 78.6712 122.578 78.5837 122.895 78.4197C123.212 78.2557 123.448 78.0479 123.601 77.7964C123.765 77.545 123.869 77.2771 123.912 76.9928C123.956 76.6976 123.978 76.4133 123.978 76.14C123.967 75.5714 123.869 75.1395 123.683 74.8443C123.508 74.5491 123.218 74.3413 122.813 74.221C122.42 74.1008 121.873 74.0406 121.173 74.0406C120.659 74.0406 120.156 74.057 119.664 74.0898C119.172 74.1226 118.74 74.1664 118.369 74.221L118.254 73.7126C118.779 73.6251 119.276 73.5595 119.746 73.5158C120.227 73.4611 120.72 73.4338 121.222 73.4338Z" fill="black"/>
<path d="M171.264 73.6833V85H170.592V75.1594C170.592 75.0282 170.597 74.897 170.608 74.7658C170.619 74.6237 170.63 74.487 170.641 74.3558L167.656 75.3398L167.541 74.8642L170.592 73.6833H171.264ZM178.428 73.6833L174.853 80.5553C174.744 80.7631 174.738 80.9435 174.837 81.0966C174.946 81.2496 175.104 81.3262 175.312 81.3262H182.266V81.8182L180.692 81.9002H175.033C174.793 81.9002 174.585 81.8291 174.41 81.687C174.246 81.5449 174.142 81.3645 174.099 81.1458C174.055 80.9271 174.088 80.7084 174.197 80.4897L177.74 73.6833H178.428ZM180.889 75.8319V85H180.232V77.7344L180.38 75.8319H180.889Z" fill="black"/>
<path d="M224.313 73.6306V84.9473H223.641V75.1067C223.641 74.9755 223.646 74.8443 223.657 74.7131C223.668 74.5709 223.679 74.4343 223.69 74.303L220.705 75.2871L220.59 74.8115L223.641 73.6306H224.313ZM233.609 73.6306L233.544 74.221H228.558L228.377 78.2393L229.361 78.2557C230.16 78.2775 230.843 78.3377 231.412 78.4361C231.991 78.5345 232.467 78.704 232.839 78.9445C233.21 79.1741 233.484 79.5021 233.659 79.9286C233.844 80.355 233.937 80.9126 233.937 81.6015C233.937 82.0388 233.899 82.4707 233.823 82.8971C233.746 83.3236 233.587 83.7063 233.347 84.0452C233.106 84.3842 232.751 84.652 232.281 84.8489C231.822 85.0457 231.204 85.1441 230.428 85.1441C230.012 85.1441 229.536 85.1058 229.001 85.0293C228.465 84.9637 227.913 84.8543 227.344 84.7013L227.459 84.1764C227.962 84.2858 228.47 84.3787 228.984 84.4552C229.498 84.5208 229.941 84.5536 230.313 84.5536C231.155 84.5536 231.783 84.4334 232.199 84.1928C232.625 83.9413 232.91 83.5969 233.052 83.1596C233.194 82.7113 233.27 82.1919 233.281 81.6015C233.281 80.9564 233.194 80.4479 233.019 80.0762C232.844 79.7044 232.56 79.4311 232.166 79.2561C231.783 79.0812 231.28 78.9718 230.657 78.9281C230.045 78.8734 229.301 78.8352 228.427 78.8133H228.049C227.962 78.8024 227.885 78.7696 227.82 78.7149C227.765 78.6493 227.743 78.5673 227.754 78.4689L228 73.6306H233.609Z" fill="black"/>
<path d="M279.149 73.6306V84.9473H278.477V75.1067C278.477 74.9755 278.482 74.8443 278.493 74.7131C278.504 74.5709 278.515 74.4343 278.526 74.303L275.541 75.2871L275.426 74.8115L278.477 73.6306H279.149ZM286.641 73.4338C286.849 73.4338 287.139 73.4447 287.51 73.4666C287.882 73.4775 288.27 73.5377 288.675 73.647L288.544 74.139C288.325 74.0953 288.128 74.068 287.953 74.057C287.778 74.0461 287.587 74.0406 287.379 74.0406C287.171 74.0297 286.925 74.0242 286.641 74.0242C285.974 74.0242 285.411 74.1008 284.952 74.2538C284.504 74.396 284.143 74.6693 283.869 75.0739C283.607 75.4784 283.416 76.0743 283.295 76.8616C283.175 77.6379 283.115 78.6602 283.115 79.9286C283.115 80.7705 283.142 81.4867 283.197 82.0771C283.263 82.6675 283.394 83.1432 283.591 83.504C283.787 83.8648 284.077 84.1327 284.46 84.3076C284.843 84.4716 285.362 84.5536 286.018 84.5536C286.816 84.5536 287.407 84.4334 287.789 84.1928C288.183 83.9523 288.44 83.6024 288.56 83.1432C288.68 82.673 288.741 82.1099 288.741 81.4539C288.741 80.6775 288.669 80.0543 288.527 79.5842C288.385 79.114 288.128 78.775 287.756 78.5673C287.396 78.3486 286.876 78.2393 286.198 78.2393C285.794 78.2393 285.417 78.2885 285.067 78.3869C284.717 78.4853 284.367 78.6602 284.017 78.9117C283.667 79.1632 283.284 79.5185 282.869 79.9778L282.803 79.6006C283.164 79.0976 283.514 78.7094 283.853 78.4361C284.192 78.1627 284.558 77.9714 284.952 77.8621C285.346 77.7418 285.805 77.6816 286.33 77.6816C287.117 77.6816 287.729 77.8019 288.166 78.0425C288.615 78.283 288.932 78.6821 289.118 79.2397C289.304 79.7974 289.397 80.5518 289.397 81.5031C289.397 82.0607 289.358 82.5691 289.282 83.0284C289.205 83.4766 289.047 83.8593 288.806 84.1764C288.576 84.4826 288.232 84.7231 287.773 84.8981C287.325 85.0621 286.734 85.1441 286.002 85.1441C285.236 85.1441 284.618 85.0511 284.148 84.8653C283.678 84.6794 283.317 84.3842 283.066 83.9796C282.825 83.5641 282.656 83.0229 282.557 82.3559C282.47 81.678 282.426 80.8525 282.426 79.8794C282.426 78.4798 282.503 77.3536 282.656 76.5008C282.82 75.637 283.071 74.9864 283.41 74.5491C283.749 74.1117 284.181 73.8165 284.706 73.6634C285.242 73.5103 285.887 73.4338 286.641 73.4338Z" fill="black"/>
<path d="M333.047 73.6306V84.9473H332.375V75.1067C332.375 74.9755 332.38 74.8443 332.391 74.7131C332.402 74.5709 332.413 74.4343 332.424 74.303L329.439 75.2871L329.324 74.8115L332.375 73.6306H333.047ZM342.049 73.6306C342.245 73.6306 342.393 73.6579 342.491 73.7126C342.59 73.7673 342.644 73.8493 342.655 73.9586C342.677 74.068 342.661 74.2101 342.606 74.385L338.949 84.9473H338.276L341.753 74.8935C341.797 74.7732 341.841 74.6584 341.884 74.5491C341.928 74.4397 341.966 74.3304 341.999 74.221H335.849L335.816 73.6306H342.049Z" fill="black"/>
<path d="M228.125 73.1638C228.125 66.0711 238.238 56.9762 243.311 62.749C250.527 70.96 240.571 80.5805 235.652 85.7565C233.847 87.6554 230.245 91.3042 229.312 94.0213" stroke="#EF692B" stroke-width="0.702898" stroke-linecap="round"/>
<path d="M228.037 73.4361C227.174 66.4147 216.056 59.0754 211.737 65.6249C205.593 74.9407 216.619 82.8262 222.118 87.1406C224.136 88.7235 228.146 91.7428 229.401 94.279" stroke="#EF692B" stroke-width="0.702898" stroke-linecap="round"/>
</svg>
